<svg width="210" height="63" viewBox="0 0 210 63" fill="none" xmlns="http://www.w3.org/2000/svg">
<g id="appstore">
<g id="Group">
<path id="Vector" d="M208.831 55.3509C208.831 58.6549 206.157 61.3313 202.851 61.3313H7.1519C3.84681 61.3313 1.16406 58.6549 1.16406 55.3509V7.65911C1.16406 4.35662 3.84681 1.6709 7.1519 1.6709H202.849C206.157 1.6709 208.829 4.35662 208.829 7.65911L208.831 55.3509Z" fill="black"/>
<path id="path16" d="M202.222 1.74194C205.823 1.74194 208.754 4.66175 208.754 8.25V54.75C208.754 58.3383 205.823 61.2581 202.222 61.2581H7.77778C4.17667 61.2581 1.24639 58.3383 1.24639 54.75V8.25C1.24639 4.66175 4.17667 1.74194 7.77778 1.74194H202.222ZM202.222 0.500003H7.77778C3.50194 0.500003 0 3.98944 0 8.25V54.75C0 59.0106 3.50194 62.5 7.77778 62.5H202.222C206.498 62.5 210 59.0106 210 54.75V8.25C210 3.98944 206.498 0.500003 202.222 0.500003Z" fill="#A6A6A6"/>
<g id="Group_2">
<g id="Group_3">
<g id="Vector_2">
<path d="M46.8657 31.1656C46.8206 26.1699 50.9708 23.7395 51.1606 23.6264C48.8101 20.2117 45.167 19.7452 43.8868 19.708C40.827 19.3871 37.859 21.5323 36.3004 21.5323C34.7106 21.5323 32.3104 19.739 29.7235 19.7917C26.3946 19.8428 23.2804 21.7633 21.5724 24.7455C18.0475 30.8261 20.6764 39.7619 24.0535 44.6769C25.7428 47.0841 27.7168 49.7718 30.3006 49.6772C32.8284 49.5734 33.7726 48.0714 36.823 48.0714C39.8455 48.0714 40.7321 49.6772 43.3673 49.6168C46.0801 49.5734 47.7881 47.1988 49.4184 44.7699C51.3706 42.0109 52.1546 39.2938 52.1857 39.1543C52.1219 39.1326 46.917 37.1532 46.8657 31.1656Z" fill="white"/>
<path d="M41.8879 16.4747C43.2475 14.7805 44.1777 12.4757 43.9195 10.1367C41.9517 10.2235 39.4908 11.493 38.0737 13.1499C36.8199 14.61 35.6999 17.0032 35.9893 19.2538C38.1997 19.4181 40.4693 18.1425 41.8879 16.4747Z" fill="white"/>
</g>
</g>
</g>
<g id="Group_4">
<path id="Vector_3" d="M83.4454 49.3325H79.9127L77.9776 43.2735H71.2514L69.4081 49.3325H65.9688L72.6327 28.7051H76.7487L83.4454 49.3325ZM77.3943 40.7315L75.6443 35.3453C75.4592 34.795 75.1123 33.4992 74.6005 31.4594H74.5383C74.3345 32.3367 74.0063 33.6325 73.5552 35.3453L71.8363 40.7315H77.3943Z" fill="white"/>
<path id="Vector_4" d="M100.586 41.7117C100.586 44.2413 99.8998 46.2408 98.5278 47.7086C97.2989 49.0153 95.7729 49.6678 93.9514 49.6678C91.9852 49.6678 90.5727 48.9641 89.7125 47.5567H89.6503V55.392H86.3338V39.3541C86.3338 37.7638 86.2918 36.1317 86.2109 34.4577H89.1276L89.3127 36.8152H89.3749C90.4809 35.0389 92.1594 34.1523 94.4118 34.1523C96.1727 34.1523 97.6427 34.8452 98.8187 36.2324C99.9978 37.6212 100.586 39.4471 100.586 41.7117ZM97.2072 41.8326C97.2072 40.3849 96.8805 39.1914 96.224 38.2521C95.5069 37.2725 94.544 36.7827 93.3369 36.7827C92.5187 36.7827 91.7752 37.0555 91.1109 37.5933C90.4452 38.1358 90.0096 38.8442 89.8058 39.7215C89.7032 40.1307 89.6518 40.4655 89.6518 40.729V43.209C89.6518 44.2909 89.9847 45.2038 90.6505 45.9494C91.3163 46.6949 92.1812 47.0669 93.2452 47.0669C94.4943 47.0669 95.4665 46.5864 96.1618 45.6285C96.8587 44.6691 97.2072 43.4043 97.2072 41.8326Z" fill="white"/>
<path id="Vector_5" d="M117.752 41.7117C117.752 44.2413 117.066 46.2408 115.693 47.7086C114.465 49.0153 112.939 49.6678 111.118 49.6678C109.152 49.6678 107.739 48.9641 106.88 47.5567H106.818V55.392H103.502V39.3541C103.502 37.7638 103.46 36.1317 103.379 34.4577H106.296L106.481 36.8152H106.543C107.647 35.0389 109.326 34.1523 111.58 34.1523C113.339 34.1523 114.809 34.8452 115.988 36.2324C117.163 37.6212 117.752 39.4471 117.752 41.7117ZM114.374 41.8326C114.374 40.3849 114.045 39.1914 113.389 38.2521C112.672 37.2725 111.712 36.7827 110.503 36.7827C109.684 36.7827 108.942 37.0555 108.276 37.5933C107.61 38.1358 107.176 38.8442 106.972 39.7215C106.871 40.1307 106.818 40.4655 106.818 40.729V43.209C106.818 44.2909 107.151 45.2038 107.814 45.9494C108.48 46.6934 109.344 47.0669 110.412 47.0669C111.661 47.0669 112.633 46.5864 113.328 45.6285C114.025 44.6691 114.374 43.4043 114.374 41.8326Z" fill="white"/>
<path id="Vector_6" d="M136.944 43.5474C136.944 45.302 136.333 46.7295 135.106 47.8316C133.757 49.0359 131.879 49.6373 129.467 49.6373C127.239 49.6373 125.453 49.2095 124.102 48.3524L124.87 45.598C126.326 46.4753 127.924 46.9155 129.664 46.9155C130.913 46.9155 131.886 46.6334 132.584 46.0723C133.279 45.5112 133.626 44.7579 133.626 43.8186C133.626 42.9816 133.34 42.2764 132.766 41.7044C132.195 41.1325 131.242 40.6008 129.91 40.1095C126.286 38.7625 124.475 36.7894 124.475 34.1947C124.475 32.499 125.11 31.1086 126.38 30.0267C127.647 28.9433 129.336 28.4023 131.448 28.4023C133.332 28.4023 134.897 28.7294 136.146 29.3819L135.317 32.0758C134.15 31.4434 132.831 31.1272 131.355 31.1272C130.188 31.1272 129.277 31.414 128.624 31.9844C128.071 32.4943 127.794 33.1159 127.794 33.8521C127.794 34.6674 128.11 35.3417 128.745 35.8718C129.297 36.3616 130.3 36.8917 131.756 37.4636C133.538 38.1782 134.846 39.0136 135.687 39.9715C136.526 40.9263 136.944 42.1214 136.944 43.5474Z" fill="white"/>
<path id="Vector_7" d="M147.911 36.938H144.255V44.1595C144.255 45.9962 144.899 46.9138 146.191 46.9138C146.783 46.9138 147.275 46.8627 147.664 46.7604L147.755 49.2698C147.102 49.5132 146.242 49.6356 145.176 49.6356C143.867 49.6356 142.843 49.2373 142.104 48.4421C141.368 47.6454 140.998 46.3093 140.998 44.4323V36.9349H138.82V34.4549H140.998V31.7316L144.255 30.752V34.4549H147.911V36.938Z" fill="white"/>
<path id="Vector_8" d="M164.406 41.7725C164.406 44.0588 163.749 45.9358 162.44 47.4037C161.066 48.9149 159.243 49.6682 156.97 49.6682C154.78 49.6682 153.036 48.9444 151.736 47.4967C150.435 46.049 149.785 44.2215 149.785 42.019C149.785 39.7141 150.454 37.8262 151.796 36.3584C153.136 34.889 154.943 34.1543 157.216 34.1543C159.406 34.1543 161.169 34.8781 162.499 36.3274C163.771 37.7332 164.406 39.5483 164.406 41.7725ZM160.965 41.8795C160.965 40.5077 160.671 39.3313 160.075 38.3501C159.38 37.1628 158.386 36.5707 157.098 36.5707C155.765 36.5707 154.752 37.1644 154.057 38.3501C153.461 39.3328 153.167 40.5279 153.167 41.9415C153.167 43.3132 153.461 44.4897 154.057 45.4693C154.774 46.6566 155.776 47.2487 157.068 47.2487C158.334 47.2487 159.328 46.6442 160.046 45.4383C160.657 44.4385 160.965 43.2497 160.965 41.8795Z" fill="white"/>
<path id="Vector_9" d="M175.185 37.3639C174.857 37.3035 174.507 37.2725 174.14 37.2725C172.973 37.2725 172.071 37.7111 171.437 38.59C170.884 39.365 170.607 40.3446 170.607 41.5272V49.3315H167.293L167.324 39.1418C167.324 37.4275 167.282 35.8666 167.199 34.4592H170.088L170.209 37.305H170.301C170.651 36.327 171.203 35.5396 171.959 34.949C172.698 34.4174 173.496 34.1523 174.356 34.1523C174.663 34.1523 174.94 34.174 175.185 34.2128V37.3639Z" fill="white"/>
<path id="Vector_10" d="M190.016 41.1914C190.016 41.7835 189.977 42.2826 189.894 42.6903H179.945C179.984 44.1597 180.465 45.2834 181.389 46.0584C182.227 46.7513 183.311 47.0985 184.643 47.0985C186.116 47.0985 187.46 46.8644 188.669 46.3948L189.188 48.6888C187.776 49.3026 186.108 49.6079 184.184 49.6079C181.869 49.6079 180.052 48.929 178.73 47.5728C177.411 46.2165 176.75 44.3953 176.75 42.1106C176.75 39.8677 177.364 38 178.595 36.5104C179.883 34.9201 181.624 34.125 183.814 34.125C185.965 34.125 187.594 34.9201 188.7 36.5104C189.576 37.7737 190.016 39.3361 190.016 41.1914ZM186.853 40.3343C186.875 39.3547 186.659 38.5084 186.209 37.7938C185.635 36.8747 184.753 36.4159 183.566 36.4159C182.482 36.4159 181.6 36.8638 180.927 37.7628C180.374 38.4774 180.046 39.3345 179.945 40.3327H186.853V40.3343Z" fill="white"/>
</g>
<g id="Group_5">
<g id="Group_6">
<path id="Vector_11" d="M76.301 16.014C76.301 17.8383 75.7519 19.2116 74.6552 20.1339C73.6394 20.9848 72.1959 21.4111 70.3261 21.4111C69.399 21.4111 68.6056 21.3708 67.9414 21.2902V11.3221C68.8079 11.1826 69.7412 11.1113 70.7492 11.1113C72.5303 11.1113 73.8727 11.4973 74.7781 12.2692C75.7923 13.1418 76.301 14.3896 76.301 16.014ZM74.5821 16.0589C74.5821 14.8763 74.2679 13.9695 73.6394 13.3371C73.011 12.7063 72.0932 12.3901 70.8845 12.3901C70.3712 12.3901 69.9341 12.4242 69.5716 12.4955V20.0734C69.7723 20.1044 70.1394 20.1184 70.673 20.1184C71.9205 20.1184 72.8834 19.7727 73.5616 19.0814C74.2399 18.3901 74.5821 17.3826 74.5821 16.0589Z" fill="white"/>
<path id="Vector_12" d="M85.4164 17.6079C85.4164 18.7317 85.0944 19.6524 84.4504 20.3747C83.7753 21.1171 82.8808 21.4876 81.7639 21.4876C80.6875 21.4876 79.8304 21.1326 79.191 20.4196C78.5533 19.7082 78.2344 18.8107 78.2344 17.7288C78.2344 16.5973 78.5626 15.6689 79.2222 14.9481C79.8817 14.2274 80.7684 13.8662 81.8853 13.8662C82.9617 13.8662 83.8266 14.2212 84.4815 14.9326C85.1037 15.6239 85.4164 16.5167 85.4164 17.6079ZM83.7255 17.6606C83.7255 16.9864 83.5793 16.4082 83.2884 15.9262C82.9462 15.3434 82.4593 15.052 81.8262 15.052C81.1713 15.052 80.6735 15.3434 80.3313 15.9262C80.0388 16.4082 79.8942 16.9957 79.8942 17.6901C79.8942 18.3643 80.0404 18.9425 80.3313 19.4245C80.6844 20.0073 81.1759 20.2987 81.8106 20.2987C82.4328 20.2987 82.9213 20.0027 83.2728 19.409C83.5746 18.9177 83.7255 18.3349 83.7255 17.6606Z" fill="white"/>
<path id="Vector_13" d="M97.6362 14.0156L95.3417 21.3223H93.8484L92.8979 18.1495C92.6568 17.3574 92.4608 16.57 92.3084 15.7888H92.2788C92.1373 16.5917 91.9413 17.3776 91.6893 18.1495L90.6797 21.3223H89.1693L87.0117 14.0156H88.6871L89.5162 17.4892C89.7168 18.3107 89.8817 19.0934 90.0139 19.8343H90.0435C90.1648 19.2236 90.3655 18.4455 90.6486 17.5047L91.6893 14.0172H93.0177L94.0148 17.4303C94.2559 18.2626 94.4519 19.064 94.6028 19.8359H94.6479C94.7584 19.0841 94.9248 18.2828 95.1457 17.4303L96.0355 14.0172H97.6362V14.0156Z" fill="white"/>
<path id="Vector_14" d="M106.088 21.3215H104.457V17.1365C104.457 15.8469 103.966 15.2021 102.98 15.2021C102.496 15.2021 102.105 15.3788 101.802 15.7337C101.502 16.0887 101.349 16.5072 101.349 16.9861V21.3199H99.7193V16.1026C99.7193 15.4609 99.699 14.765 99.6602 14.0117H101.093L101.169 15.154H101.214C101.404 14.7991 101.687 14.5061 102.059 14.2721C102.501 13.9993 102.995 13.8613 103.537 13.8613C104.221 13.8613 104.79 14.0814 105.243 14.5232C105.806 15.0641 106.088 15.8717 106.088 16.9443V21.3215Z" fill="white"/>
<path id="Vector_15" d="M110.586 21.3215H108.957V10.6621H110.586V21.3215Z" fill="white"/>
<path id="Vector_16" d="M120.178 17.6079C120.178 18.7317 119.856 19.6524 119.212 20.3747C118.537 21.1171 117.641 21.4876 116.526 21.4876C115.448 21.4876 114.591 21.1326 113.953 20.4196C113.315 19.7082 112.996 18.8107 112.996 17.7288C112.996 16.5973 113.324 15.6689 113.984 14.9481C114.643 14.2274 115.53 13.8662 116.645 13.8662C117.723 13.8662 118.587 14.2212 119.243 14.9326C119.865 15.6239 120.178 16.5167 120.178 17.6079ZM118.486 17.6606C118.486 16.9864 118.339 16.4082 118.049 15.9262C117.708 15.3434 117.219 15.052 116.588 15.052C115.931 15.052 115.434 15.3434 115.093 15.9262C114.801 16.4082 114.656 16.9957 114.656 17.6901C114.656 18.3643 114.802 18.9425 115.093 19.4245C115.446 20.0073 115.938 20.2987 116.572 20.2987C117.195 20.2987 117.681 20.0027 118.033 19.409C118.336 18.9177 118.486 18.3349 118.486 17.6606Z" fill="white"/>
<path id="Vector_17" d="M128.071 21.3217H126.607L126.486 20.4801H126.441C125.94 21.1512 125.226 21.4876 124.299 21.4876C123.606 21.4876 123.046 21.2659 122.625 20.8257C122.242 20.4258 122.051 19.9283 122.051 19.3377C122.051 18.4449 122.424 17.7645 123.175 17.2933C123.925 16.8221 124.98 16.5911 126.338 16.602V16.4656C126.338 15.503 125.831 15.0225 124.815 15.0225C124.092 15.0225 123.454 15.2039 122.903 15.5635L122.572 14.4971C123.253 14.077 124.095 13.8662 125.087 13.8662C127.004 13.8662 127.965 14.8737 127.965 16.8887V19.5795C127.965 20.3096 128.001 20.8908 128.071 21.3217ZM126.378 18.8107V17.6839C124.58 17.6529 123.681 18.1442 123.681 19.1564C123.681 19.5377 123.784 19.8229 123.994 20.0135C124.204 20.2042 124.471 20.2987 124.79 20.2987C125.148 20.2987 125.482 20.1856 125.787 19.9608C126.094 19.7345 126.282 19.4478 126.352 19.0959C126.369 19.0169 126.378 18.9208 126.378 18.8107Z" fill="white"/>
<path id="Vector_18" d="M137.332 21.3215H135.885L135.809 20.1481H135.764C135.302 21.0409 134.515 21.4873 133.409 21.4873C132.525 21.4873 131.79 21.1417 131.206 20.4504C130.623 19.7591 130.332 18.8616 130.332 17.7596C130.332 16.5769 130.648 15.619 131.282 14.8874C131.897 14.2054 132.65 13.8644 133.546 13.8644C134.53 13.8644 135.22 14.1946 135.612 14.8564H135.643V10.6621H137.274V19.353C137.274 20.0644 137.293 20.7201 137.332 21.3215ZM135.643 18.2401V17.0218C135.643 16.811 135.627 16.6405 135.598 16.5103C135.506 16.1197 135.308 15.7911 135.008 15.526C134.705 15.261 134.339 15.1277 133.918 15.1277C133.309 15.1277 132.833 15.3679 132.483 15.85C132.136 16.332 131.961 16.9474 131.961 17.6991C131.961 18.4214 132.127 19.0073 132.462 19.4584C132.815 19.9389 133.291 20.1791 133.886 20.1791C134.422 20.1791 134.849 19.9792 135.174 19.5777C135.489 19.2073 135.643 18.7609 135.643 18.2401Z" fill="white"/>
<path id="Vector_19" d="M151.276 17.6079C151.276 18.7317 150.954 19.6524 150.31 20.3747C149.635 21.1171 148.742 21.4876 147.623 21.4876C146.548 21.4876 145.691 21.1326 145.05 20.4196C144.413 19.7082 144.094 18.8107 144.094 17.7288C144.094 16.5973 144.422 15.6689 145.082 14.9481C145.741 14.2274 146.628 13.8662 147.746 13.8662C148.821 13.8662 149.688 14.2212 150.341 14.9326C150.963 15.6239 151.276 16.5167 151.276 17.6079ZM149.586 17.6606C149.586 16.9864 149.44 16.4082 149.149 15.9262C148.806 15.3434 148.32 15.052 147.686 15.052C147.032 15.052 146.534 15.3434 146.191 15.9262C145.898 16.4082 145.754 16.9957 145.754 17.6901C145.754 18.3643 145.9 18.9425 146.191 19.4245C146.544 20.0073 147.035 20.2987 147.67 20.2987C148.292 20.2987 148.782 20.0027 149.134 19.409C149.434 18.9177 149.586 18.3349 149.586 17.6606Z" fill="white"/>
<path id="Vector_20" d="M160.043 21.3215H158.415V17.1365C158.415 15.8469 157.923 15.2021 156.935 15.2021C156.451 15.2021 156.061 15.3788 155.759 15.7337C155.457 16.0887 155.307 16.5072 155.307 16.9861V21.3199H153.675V16.1026C153.675 15.4609 153.656 14.765 153.617 14.0117H155.048L155.125 15.154H155.17C155.361 14.7991 155.644 14.5061 156.014 14.2721C156.458 13.9993 156.951 13.8613 157.494 13.8613C158.177 13.8613 158.746 14.0814 159.199 14.5232C159.763 15.0641 160.043 15.8717 160.043 16.9443V21.3215Z" fill="white"/>
<path id="Vector_21" d="M171.013 15.2318H169.218V18.7813C169.218 19.6834 169.537 20.1344 170.168 20.1344C170.461 20.1344 170.703 20.1096 170.895 20.0585L170.937 21.2907C170.615 21.4116 170.192 21.4721 169.67 21.4721C169.026 21.4721 168.526 21.2768 168.163 20.8862C167.799 20.4956 167.619 19.8384 167.619 18.9161V15.2318H166.547V14.015H167.619V12.6758L169.216 12.1953V14.0135H171.011V15.2318H171.013Z" fill="white"/>
<path id="Vector_22" d="M179.642 21.3215H178.01V17.1675C178.01 15.8577 177.519 15.2021 176.534 15.2021C175.778 15.2021 175.261 15.5818 174.978 16.3413C174.93 16.501 174.902 16.6963 174.902 16.9257V21.3199H173.273V10.6621H174.902V15.0657H174.933C175.447 14.2643 176.182 13.8644 177.136 13.8644C177.811 13.8644 178.369 14.0845 178.813 14.5263C179.365 15.0765 179.642 15.8949 179.642 16.9768V21.3215Z" fill="white"/>
<path id="Vector_23" d="M188.547 17.322C188.547 17.6134 188.525 17.8583 188.486 18.0583H183.597C183.619 18.7806 183.852 19.3308 184.305 19.7121C184.718 20.0531 185.252 20.2236 185.905 20.2236C186.629 20.2236 187.288 20.1089 187.882 19.878L188.138 21.0064C187.442 21.3071 186.624 21.4574 185.677 21.4574C184.541 21.4574 183.647 21.1242 183 20.4577C182.349 19.7912 182.027 18.8968 182.027 17.7746C182.027 16.6726 182.328 15.755 182.933 15.0234C183.564 14.2422 184.418 13.8516 185.496 13.8516C186.551 13.8516 187.352 14.2422 187.893 15.0234C188.33 15.6434 188.547 16.4106 188.547 17.322ZM186.991 16.902C187.004 16.4199 186.896 16.0045 186.675 15.6542C186.392 15.2032 185.961 14.9769 185.378 14.9769C184.846 14.9769 184.412 15.197 184.081 15.6387C183.81 15.9906 183.65 16.4106 183.597 16.902H186.991Z" fill="white"/>
</g>
</g>
</g>
</g>
</svg>
