<svg width="17" height="18" viewBox="0 0 17 18" fill="none" xmlns="http://www.w3.org/2000/svg">
<g id="icon_search">
<path id="&#244;&#128;&#138;&#171;" d="M0 7.52913C0 5.64213 0.663 4.02713 2.006 2.68413C3.349 1.34113 4.964 0.661133 6.868 0.661133C8.755 0.661133 10.37 1.34113 11.713 2.68413C13.039 4.02713 13.719 5.64213 13.719 7.52913C13.719 8.94013 13.328 10.1981 12.546 11.3201L16.116 14.9071C16.388 15.1791 16.524 15.5191 16.524 15.9101C16.524 16.3181 16.388 16.6581 16.116 16.9301C15.844 17.2021 15.521 17.3381 15.113 17.3381C14.705 17.3381 14.365 17.2021 14.093 16.9301L10.489 13.3091C9.401 14.0231 8.194 14.3801 6.868 14.3801C4.964 14.3801 3.349 13.7171 2.006 12.3741C0.663 11.0481 0 9.43313 0 7.52913ZM2.023 7.52913C2.023 8.87213 2.482 10.0111 3.434 10.9461C4.386 11.8981 5.525 12.3571 6.868 12.3571C8.194 12.3571 9.333 11.8981 10.285 10.9461C11.22 10.0111 11.696 8.87213 11.696 7.52913C11.696 6.20313 11.22 5.06413 10.285 4.11213C9.333 3.16013 8.194 2.68413 6.868 2.68413C5.525 2.68413 4.386 3.16013 3.434 4.11213C2.482 5.06413 2.023 6.20313 2.023 7.52913Z" fill="#AAAEB5"/>
</g>
</svg>
