<svg width="20" height="24" viewBox="0 0 20 24" fill="none" xmlns="http://www.w3.org/2000/svg">
<path d="M8.3006 19.462C7.8416 19.462 7.4676 19.275 7.1616 18.901L2.8776 13.597C2.6396 13.325 2.5376 13.053 2.5376 12.747C2.5376 12.424 2.6396 12.152 2.8606 11.931C3.0646 11.727 3.3536 11.608 3.6936 11.608C4.0846 11.608 4.4076 11.778 4.6626 12.084L8.2666 16.657L15.2876 5.522C15.5596 5.114 15.8996 4.893 16.3246 4.893C16.6646 4.893 16.9366 5.012 17.1576 5.216C17.3616 5.437 17.4806 5.709 17.4806 6.032C17.4806 6.304 17.3786 6.576 17.2086 6.848L9.4396 18.867C9.1676 19.275 8.7766 19.462 8.3006 19.462Z" fill="#0097AB"/>
</svg>
