<svg width="122" height="32" viewBox="0 0 122 32" fill="none" xmlns="http://www.w3.org/2000/svg">
<path d="M28.2273 17.1634C28.2273 24.4097 22.353 30.2839 15.1068 30.2839C7.86056 30.2839 1.98633 24.4097 1.98633 17.1634C1.98633 9.9172 7.86056 4.04297 15.1068 4.04297C22.353 4.04297 28.2273 9.9172 28.2273 17.1634Z" fill="white"/>
<path d="M23.3589 25.2224C23.9744 25.2004 24.514 25.1774 24.9777 25.1536C25.4413 25.1297 25.9169 25.1018 26.4045 25.0698C26.8921 25.0378 27.4383 24.9949 28.043 24.9409C28.6478 24.887 29.4004 24.8229 30.3008 24.7487C30.466 24.7371 30.5767 24.7485 30.6329 24.7828C30.6997 24.8224 30.7643 24.934 30.8266 25.1176C30.8537 25.1974 30.8877 25.3238 30.9286 25.4969C30.9802 25.6752 31.0039 25.8629 30.9997 26.0602C31.0034 26.2547 30.9684 26.4402 30.8948 26.6165C30.8291 26.7901 30.6885 26.9135 30.473 26.9866C30.2815 27.0516 29.9672 27.096 29.5302 27.1197C29.1039 27.1487 28.6109 27.1647 28.0512 27.1678C27.4915 27.1708 26.9011 27.1621 26.2799 27.1415C25.6695 27.1262 25.087 27.1014 24.5324 27.0671C23.9778 27.0328 23.4885 26.9941 23.0645 26.9512C22.6431 26.9161 22.3471 26.8831 22.1764 26.8521C21.9949 26.8157 21.8663 26.6858 21.7904 26.4624L21.3638 25.2053C21.296 25.0058 21.2751 24.826 21.3008 24.6659C21.3373 24.5111 21.4045 24.3682 21.5024 24.237C21.6003 24.1059 21.7196 23.9853 21.8602 23.8753C22.0089 23.7625 22.1602 23.6577 22.3143 23.5609C23.3555 22.9049 24.2573 22.3362 25.0196 21.855C25.7926 21.379 26.4368 20.9823 26.9522 20.665C27.4755 20.345 27.878 20.1015 28.1596 19.9347C28.4412 19.768 28.6179 19.6724 28.6897 19.648C28.7775 19.6182 28.8631 19.6604 28.9463 19.7745C29.0375 19.886 29.1346 20.0933 29.2376 20.3966C29.3459 20.7159 29.402 20.9861 29.4059 21.2073C29.4125 21.4365 29.3763 21.6313 29.2972 21.7916C29.2288 21.9572 29.1242 22.0951 28.9836 22.2051C28.8536 22.3204 28.7009 22.4212 28.5255 22.5075C28.3979 22.5775 28.2424 22.657 28.059 22.7459C27.8836 22.8322 27.6138 22.9682 27.2496 23.1541C26.8882 23.348 26.3979 23.6079 25.7786 23.9338C25.1674 24.257 24.3608 24.6865 23.3589 25.2224Z" fill="black"/>
<path fill-rule="evenodd" clip-rule="evenodd" d="M21.8601 23.8754C22.0087 23.7626 22.1601 23.6578 22.3141 23.561C23.3554 22.905 24.2572 22.3364 25.0195 21.8551L26.952 20.6651C27.4753 20.3451 27.8778 20.1017 28.1594 19.9349C28.441 19.7681 28.6178 19.6725 28.6896 19.6481C28.7774 19.6183 28.8629 19.6605 28.9462 19.7746C29.0374 19.8861 29.1345 20.0935 29.2374 20.3967C29.3458 20.716 29.4019 20.9862 29.4058 21.2074C29.4079 21.2828 29.4055 21.3544 29.3984 21.4223C29.3982 21.4239 29.3981 21.4254 29.3979 21.4269C29.3831 21.5637 29.3495 21.6853 29.297 21.7917C29.2286 21.9574 29.1241 22.0952 28.9834 22.2052C28.8535 22.3206 28.7008 22.4213 28.5253 22.5076C28.3978 22.5776 28.2423 22.6571 28.0589 22.746C27.9081 22.8201 27.6878 22.931 27.3979 23.0786C27.3503 23.1028 27.3008 23.128 27.2495 23.1543C26.9988 23.2887 26.6861 23.4549 26.3114 23.6529C26.1459 23.7404 25.9682 23.8341 25.7785 23.9339C25.5304 24.0651 25.2502 24.2138 24.9377 24.38C24.5479 24.5873 24.108 24.822 23.618 25.0839C23.5409 25.1251 23.4627 25.1669 23.3832 25.2094C23.375 25.2138 23.3669 25.2182 23.3587 25.2225C23.3682 25.2222 23.3778 25.2218 23.3872 25.2215C23.8516 25.2048 24.2723 25.1876 24.6495 25.1698C24.681 25.1683 24.7123 25.1669 24.7432 25.1654C24.8233 25.1615 24.9015 25.1576 24.9775 25.1537C25.4326 25.1303 25.8992 25.103 26.3773 25.0717C26.3782 25.0717 26.3791 25.0716 26.38 25.0715C26.3881 25.071 26.3962 25.0705 26.4044 25.0699C26.8654 25.0397 27.3789 24.9996 27.9447 24.9497C27.9772 24.9469 28.01 24.944 28.0429 24.941C28.6476 24.8871 29.4002 24.823 30.3007 24.7488C30.4659 24.7372 30.5766 24.7486 30.6327 24.7829C30.6996 24.8226 30.7642 24.9342 30.8265 25.1177C30.8536 25.1975 30.8876 25.324 30.9285 25.497C30.9801 25.6753 31.0038 25.8631 30.9995 26.0603C31.0033 26.2549 30.9683 26.4403 30.8946 26.6166C30.8289 26.7902 30.6884 26.9136 30.4729 26.9867C30.2813 27.0518 29.967 27.0961 29.5301 27.1198C29.1038 27.1488 28.6108 27.1648 28.051 27.1679C27.4913 27.171 26.9009 27.1622 26.2798 27.1416C25.7426 27.1281 25.227 27.1073 24.733 27.0791C24.6657 27.0753 24.5988 27.0713 24.5322 27.0672C24.1273 27.0422 23.7571 27.0148 23.4218 26.9851C23.41 26.9841 23.3982 26.983 23.3865 26.982C23.2752 26.972 23.1678 26.9618 23.0643 26.9513C22.643 26.9163 22.347 26.8832 22.1762 26.8522C21.9948 26.8159 21.8661 26.686 21.7903 26.4625L21.3636 25.2054C21.2959 25.0059 21.2749 24.8261 21.3007 24.666C21.3372 24.5113 21.4043 24.3683 21.5022 24.2372C21.6001 24.106 21.7194 23.9854 21.8601 23.8754ZM30.8897 22.8738C31.0799 22.9083 31.3455 22.9813 31.6179 23.1453C32.0543 23.4076 32.2857 23.7669 32.3854 23.9391C32.5037 24.1435 32.5826 24.3457 32.6362 24.5035C32.69 24.662 32.7378 24.8463 32.7789 25.0178C32.8737 25.3643 32.9151 25.7155 32.9108 26.0644C32.9139 26.4958 32.8341 26.9218 32.6689 27.3269C32.3508 28.1331 31.7006 28.5882 31.0871 28.7964C30.6347 28.95 30.1014 29.0023 29.6468 29.0274C29.1741 29.0592 28.6442 29.0758 28.0615 29.079C27.477 29.0822 26.8644 29.073 26.2241 29.0519C25.5954 29.036 24.992 29.0104 24.4143 28.9746C23.849 28.9397 23.3397 28.8998 22.8889 28.8544C22.4751 28.8198 22.1024 28.7812 21.8343 28.7324L21.8177 28.7294L21.8011 28.7261C20.7623 28.5182 20.2058 27.7404 19.9806 27.0767L19.5539 25.8197C19.4151 25.4106 19.3259 24.9084 19.4139 24.3622L19.4248 24.2945L19.4405 24.2278C19.5388 23.8104 19.7208 23.4287 19.9708 23.0939C20.1789 22.8152 20.4204 22.5752 20.6825 22.3702L20.6937 22.3614L20.7051 22.3528C20.8969 22.2072 21.094 22.0707 21.2964 21.9435C22.3369 21.2879 23.2378 20.7198 23.9993 20.2391L24.0083 20.2334L25.9525 19.0362L25.955 19.0347C26.4806 18.7133 26.8922 18.4643 27.1855 18.2905C27.3362 18.2013 27.4746 18.1217 27.594 18.0571L27.5966 18.0557C27.676 18.0128 27.8685 17.9086 28.0754 17.8384C28.6143 17.6555 29.1821 17.7053 29.6649 17.9434C30.0586 18.1376 30.3128 18.4139 30.4608 18.609C30.7663 19.0011 30.9426 19.4744 31.0471 19.7825C31.1883 20.1985 31.3062 20.6731 31.3164 21.1629C31.3277 21.598 31.2648 22.0929 31.0392 22.5781C30.9947 22.6799 30.9448 22.7786 30.8897 22.8738Z" fill="white"/>
<path d="M24.3652 27.0634C23.4017 27.0516 20.751 27.4016 18.8555 27.866L21.7826 25.8906L24.3652 27.0634Z" fill="black"/>
<path d="M6.37956 5.89779C6.37956 6.93296 5.54039 7.77214 4.50521 7.77214C3.47004 7.77214 2.63086 6.93296 2.63086 5.89779C2.63086 4.86261 3.47004 4.02344 4.50521 4.02344C5.54039 4.02344 6.37956 4.86261 6.37956 5.89779Z" fill="#35ACBC"/>
<path fill-rule="evenodd" clip-rule="evenodd" d="M8.29161 5.89874C8.29161 7.98939 6.59681 9.68419 4.50616 9.68419C2.41551 9.68419 0.720703 7.98939 0.720703 5.89874C0.720703 3.80809 2.41551 2.11328 4.50616 2.11328C6.59681 2.11328 8.29161 3.80809 8.29161 5.89874ZM4.50616 7.77309C5.54133 7.77309 6.38051 6.93391 6.38051 5.89874C6.38051 4.86356 5.54133 4.02438 4.50616 4.02438C3.47098 4.02438 2.63181 4.86356 2.63181 5.89874C2.63181 6.93391 3.47098 7.77309 4.50616 7.77309Z" fill="white"/>
<path d="M11.3646 3.04947C11.3646 3.67869 10.8545 4.18878 10.2252 4.18878C9.59602 4.18878 9.08594 3.67869 9.08594 3.04947C9.08594 2.42024 9.59602 1.91016 10.2252 1.91016C10.8545 1.91016 11.3646 2.42024 11.3646 3.04947Z" fill="#0097AB"/>
<path fill-rule="evenodd" clip-rule="evenodd" d="M13.2766 3.05042C13.2766 4.73511 11.9109 6.10083 10.2262 6.10083C8.5415 6.10083 7.17578 4.73511 7.17578 3.05042C7.17578 1.36572 8.5415 0 10.2262 0C11.9109 0 13.2766 1.36572 13.2766 3.05042ZM10.2262 4.18973C10.8554 4.18973 11.3655 3.67964 11.3655 3.05042C11.3655 2.42119 10.8554 1.9111 10.2262 1.9111C9.59697 1.9111 9.08688 2.42119 9.08688 3.05042C9.08688 3.67964 9.59697 4.18973 10.2262 4.18973Z" fill="white"/>
<path d="M0.00195312 16.5127C0.00195312 13.9718 1.9626 11.8613 4.49668 11.6746L8.09838 11.4092C10.9105 11.2019 13.3062 13.4276 13.3062 16.2473V17.1169C13.3062 19.9117 10.9508 22.1286 8.16104 21.9593L4.55934 21.7407C1.9989 21.5853 0.00195312 19.4635 0.00195312 16.8983V16.5127Z" fill="white"/>
<g clip-path="url(#clip0_7554_201193)">
<path opacity="0.7" d="M15.0129 19.3855C6.48936 22.6985 10.1463 9.84735 4.38086 7.14844L1.35782 27.4248L24.3897 30.8587L24.3897 20.4894C23.8334 14.3886 21.6283 16.8142 15.0129 19.3855Z" fill="#0097AB"/>
<rect opacity="0.3" x="3.75" y="5.88086" width="22.6392" height="22.6392" fill="#35ACBC"/>
</g>
<rect x="4.72313" y="6.85399" width="20.7281" height="20.7281" rx="10.3641" stroke="black" stroke-width="1.9111"/>
<path d="M9.80471 11.4396C9.87449 11.0151 9.94137 10.582 10.0054 10.1404C10.0765 9.7005 10.1428 9.2725 10.2044 8.85643C10.2739 8.43348 10.3359 8.05158 10.3903 7.71078C10.4446 7.37095 10.4867 7.08506 10.5162 6.85433C10.5502 6.64254 10.5731 6.49236 10.5789 6.43162C10.6233 5.96068 10.5817 5.51528 10.3765 5.15972C10.1245 4.72298 9.63171 4.55819 9.13358 4.51117L8.52669 4.45389C8.38643 4.44065 8.1923 4.46151 8.0287 4.60597C7.87102 4.7452 7.82396 4.92749 7.81181 5.05623C7.79985 5.18293 7.76601 5.43259 7.70743 5.81658C7.64948 6.19644 7.5782 6.63887 7.49351 7.14414C7.40832 7.65248 7.31999 8.19414 7.22854 8.7691C7.13743 9.34191 7.0491 9.8853 6.96357 10.3993C6.87751 10.9165 6.80382 11.3807 6.74258 11.7917C6.68262 12.1912 6.64294 12.4861 6.62579 12.6678C6.58591 13.0902 6.65818 13.4984 6.91729 13.8252C7.19526 14.1757 7.63879 14.3195 8.10344 14.3634L8.71032 14.4206C8.79404 14.4286 9.03165 14.4439 9.21876 14.2676L9.24284 14.245L9.26357 14.2192C9.35571 14.1045 9.3955 13.9733 9.41587 13.8776C9.43366 13.801 9.4602 13.6454 9.49347 13.4381L9.49365 13.437C9.53042 13.2045 9.57601 12.9178 9.63044 12.577C9.68506 12.235 9.74316 11.8558 9.80471 11.4396Z" fill="black" stroke="white" stroke-width="0.955552"/>
<rect x="4.50586" y="9.20312" width="2.57264" height="3.93839" fill="white"/>
<path d="M4.86013 11.1713C4.86013 11.7599 4.38295 12.2371 3.79432 12.2371C3.20569 12.2371 2.72852 11.7599 2.72852 11.1713C2.72852 10.5826 3.20569 10.1055 3.79432 10.1055C4.38295 10.1055 4.86013 10.5826 4.86013 11.1713Z" fill="black"/>
<path fill-rule="evenodd" clip-rule="evenodd" d="M6.77218 11.1722C6.77218 12.8163 5.43937 14.1491 3.79527 14.1491C2.15117 14.1491 0.818359 12.8163 0.818359 11.1722C0.818359 9.52812 2.15117 8.19531 3.79527 8.19531C5.43937 8.19531 6.77218 9.52812 6.77218 11.1722ZM3.79527 12.238C4.3839 12.238 4.86108 11.7609 4.86108 11.1722C4.86108 10.5836 4.3839 10.1064 3.79527 10.1064C3.20664 10.1064 2.72946 10.5836 2.72946 11.1722C2.72946 11.7609 3.20664 12.238 3.79527 12.238Z" fill="white"/>
<path d="M5.17908 13.6091L7.53282 13.435C9.4288 13.2948 11.0443 14.7952 11.0443 16.6964C11.0443 18.5807 9.45605 20.0752 7.5752 19.9607L5.21941 19.8172C3.57764 19.7172 2.29735 18.3566 2.29735 16.7118C2.29735 15.0825 3.55428 13.7292 5.17908 13.6091Z" fill="white" stroke="black" stroke-width="1.9111"/>
<circle cx="7.83411" cy="16.6661" r="1.09974" fill="black"/>
<path d="M13.8858 11.9226C13.9012 11.845 13.9342 11.7933 13.985 11.7674C14.0462 11.7324 14.1011 11.7167 14.1498 11.7202C14.8116 11.7676 15.4311 11.7923 16.0081 11.7943C16.5956 11.7872 17.0548 11.7955 17.3857 11.8192C18.213 11.8785 18.898 12.0112 19.4409 12.2174C19.9935 12.4242 20.4275 12.716 20.7429 13.0928C21.068 13.4702 21.2836 13.9432 21.3896 14.5115C21.4956 15.0799 21.5205 15.7556 21.4644 16.5386C21.4076 17.3314 21.2691 18.1036 21.049 18.8552C20.8392 19.5977 20.5138 20.2483 20.0727 20.807C19.6316 21.3657 19.0574 21.8017 18.3501 22.115C17.6533 22.4192 16.7891 22.5344 15.7574 22.4605C15.2805 22.4263 14.8432 22.3851 14.4456 22.337C14.0577 22.2895 13.7261 22.2067 13.4508 22.0886C13.1756 21.9705 12.9671 21.808 12.8254 21.6011C12.6837 21.3942 12.6252 21.1194 12.6497 20.7768C12.6588 20.6496 12.6774 20.4591 12.7053 20.2053C12.743 19.9522 12.7843 19.6502 12.829 19.2992C12.8834 18.9489 12.9403 18.5644 12.9997 18.1456C13.0695 17.7178 13.1407 17.2703 13.2133 16.8033C13.3606 15.8399 13.4744 15.0708 13.5547 14.4961C13.6447 13.9221 13.7062 13.474 13.7391 13.1517C13.7824 12.8203 13.81 12.5714 13.8219 12.405C13.8436 12.2393 13.8649 12.0785 13.8858 11.9226Z" fill="white"/>
<path d="M13.8858 11.9226C13.9012 11.845 13.9342 11.7933 13.985 11.7674C14.0462 11.7324 14.1011 11.7167 14.1498 11.7202C14.8116 11.7676 15.4311 11.7923 16.0081 11.7943C16.5956 11.7872 17.0548 11.7955 17.3857 11.8192C18.213 11.8785 18.898 12.0112 19.4409 12.2174C19.9935 12.4242 20.4275 12.716 20.7429 13.0928C21.068 13.4702 21.2836 13.9432 21.3896 14.5115C21.4956 15.0799 21.5205 15.7556 21.4644 16.5386C21.4076 17.3314 21.2691 18.1036 21.049 18.8552C20.8392 19.5977 20.5138 20.2483 20.0727 20.807C19.6316 21.3657 19.0574 21.8017 18.3501 22.115C17.6533 22.4192 16.7891 22.5344 15.7574 22.4605C15.2805 22.4263 14.8432 22.3851 14.4456 22.337C14.0577 22.2895 13.7261 22.2067 13.4508 22.0886C13.1756 21.9705 12.9671 21.808 12.8254 21.6011C12.6837 21.3942 12.6252 21.1194 12.6497 20.7768C12.6588 20.6496 12.6774 20.4591 12.7053 20.2053C12.743 19.9522 12.7843 19.6502 12.829 19.2992C12.8834 18.9489 12.9403 18.5644 12.9997 18.1456C13.0695 17.7178 13.1407 17.2703 13.2133 16.8033C13.3606 15.8399 13.4744 15.0708 13.5547 14.4961C13.6447 13.9221 13.7062 13.474 13.7391 13.1517C13.7824 12.8203 13.81 12.5714 13.8219 12.405C13.8436 12.2393 13.8649 12.0785 13.8858 11.9226ZM16.0258 20.1481C16.5708 20.1871 17.0124 20.1007 17.3504 19.8888C17.6981 19.6776 17.9726 19.3972 18.1737 19.0476C18.3749 18.698 18.5201 18.31 18.6093 17.8835C18.6986 17.457 18.7569 17.0529 18.7842 16.6712C18.8137 16.2601 18.8101 15.9008 18.7734 15.5932C18.7472 15.2765 18.6733 15.0105 18.5518 14.7952C18.44 14.5806 18.2708 14.4159 18.0443 14.3013C17.8184 14.1769 17.5303 14.1022 17.1799 14.0771C17.0728 14.0694 16.9362 14.0645 16.77 14.0625C16.6039 14.0604 16.4033 14.0608 16.1683 14.0636C16.1229 14.4244 16.0677 14.8533 16.0027 15.3504C15.9385 15.8377 15.8672 16.354 15.789 16.8993C15.7213 17.4355 15.6479 17.9812 15.569 18.5363C15.4908 19.0817 15.4154 19.5878 15.3428 20.0549C15.4874 20.0849 15.6177 20.109 15.7338 20.1272C15.8506 20.1355 15.9479 20.1425 16.0258 20.1481Z" fill="black"/>
<path d="M28.5115 19.7482L22.4847 23.3459C22.3483 23.4278 22.2085 23.5113 22.0654 23.5968L22.064 23.5977L21.9668 23.655L22.4847 23.3459C24.4223 22.1814 25.6859 21.3172 26.2093 19.3384C26.4885 18.2824 28.3207 19.8603 28.5115 19.7482Z" fill="white"/>
<path d="M25.0675 25.1524C23.4595 25.2363 21.9039 26.116 19.082 27.8115L23.3639 25.2137L25.0675 25.1524Z" fill="white"/>
<path d="M7.63728 9.25195C7.09278 12.0284 7.37084 12.4548 5.38477 12.6528H7.23243L7.63728 9.25195Z" fill="black"/>
<path d="M9.68703 12.9245C8.92211 12.5448 9.19878 12.5999 9.30682 11.4902L8.61328 13.1843C9.17597 13.2169 10.1885 13.1735 9.68703 12.9245Z" fill="black"/>
<circle cx="20.1513" cy="21.4638" r="1.45986" fill="white"/>
<circle cx="15.9996" cy="9.43706" r="0.911671" fill="#35ACBC"/>
<path d="M10.8809 7.69008C10.9327 7.30702 11.0632 6.59709 11.4813 6.48438L10.8809 6.49837V7.69008Z" fill="white"/>
<path d="M117.859 11.9981L117.171 22.0484C117.159 22.2295 117.092 22.32 116.971 22.32H115.976C115.299 22.32 114.817 22.1872 114.527 21.9216C114.237 21.656 114.092 21.2758 114.092 20.7808C114.092 20.5997 114.098 20.3281 114.11 19.9659C114.134 19.6037 114.165 19.1812 114.201 18.6983C114.237 18.2033 114.273 17.6721 114.31 17.1047C114.358 16.5253 114.406 15.9458 114.454 15.3663C114.503 14.7748 114.545 14.1892 114.581 13.6098C114.629 13.0303 114.672 12.4931 114.708 11.9981H111.811C111.678 11.9981 111.611 11.9136 111.611 11.7446L111.666 10.7305C111.678 10.5736 111.702 10.4226 111.738 10.2778C111.786 10.1208 111.859 9.982 111.955 9.86128C112.052 9.74056 112.173 9.64398 112.318 9.57154C112.475 9.49911 112.662 9.46289 112.879 9.46289H120.973C121.046 9.46289 121.112 9.481 121.173 9.51722C121.233 9.55343 121.263 9.61983 121.263 9.71641L121.191 10.7848C121.167 11.147 121.064 11.4428 120.883 11.6721C120.714 11.8894 120.358 11.9981 119.815 11.9981H117.859Z" fill="white"/>
<path d="M110.051 16.4166C110.015 16.7788 109.961 17.1832 109.888 17.6299C109.816 18.0645 109.701 18.5112 109.544 18.9699C109.399 19.4166 109.2 19.8512 108.947 20.2737C108.693 20.6963 108.367 21.0766 107.969 21.4146C107.57 21.7405 107.088 22.0061 106.52 22.2114C105.965 22.4045 105.301 22.5011 104.528 22.5011C103.744 22.5011 103.074 22.3924 102.518 22.1751C101.963 21.9458 101.51 21.6379 101.16 21.2516C100.81 20.8532 100.556 20.3945 100.399 19.8753C100.243 19.3562 100.164 18.8009 100.164 18.2094C100.164 17.9438 100.176 17.5876 100.2 17.1409C100.224 16.6822 100.255 16.1872 100.291 15.656C100.339 15.1249 100.387 14.5756 100.436 14.0082C100.484 13.4287 100.526 12.8794 100.562 12.3603C100.611 11.8412 100.653 11.3764 100.689 10.9659C100.725 10.5434 100.75 10.2235 100.762 10.0062C100.774 9.77677 100.804 9.6319 100.852 9.57154C100.9 9.49911 100.973 9.46289 101.069 9.46289H102.065C102.802 9.46289 103.297 9.61983 103.55 9.93372C103.804 10.2476 103.931 10.7124 103.931 11.3281C103.931 11.3643 103.919 11.5273 103.894 11.817C103.882 12.0947 103.858 12.4387 103.822 12.8492C103.798 13.2597 103.768 13.7063 103.731 14.1892C103.707 14.6721 103.677 15.1309 103.641 15.5655C103.617 16.0001 103.593 16.3804 103.568 16.7063C103.556 17.0323 103.55 17.2496 103.55 17.3583C103.55 17.5635 103.556 17.7989 103.568 18.0645C103.593 18.3301 103.641 18.5836 103.713 18.825C103.798 19.0665 103.925 19.2717 104.094 19.4407C104.275 19.5977 104.528 19.6762 104.854 19.6762C105.265 19.6762 105.597 19.5373 105.85 19.2597C106.116 18.982 106.315 18.65 106.448 18.2637C106.593 17.8774 106.689 17.485 106.737 17.0866C106.798 16.6882 106.84 16.3623 106.864 16.1088C106.913 15.4931 106.961 14.8593 107.009 14.2074C107.069 13.5554 107.118 12.9458 107.154 12.3784C107.202 11.811 107.238 11.316 107.263 10.8935C107.287 10.4709 107.299 10.1812 107.299 10.0243C107.299 9.78281 107.317 9.6319 107.353 9.57154C107.389 9.49911 107.468 9.46289 107.589 9.46289H108.585C108.995 9.46289 109.315 9.49911 109.544 9.57154C109.786 9.64398 109.967 9.74056 110.088 9.86128C110.208 9.982 110.281 10.1208 110.305 10.2778C110.341 10.4347 110.359 10.5977 110.359 10.7667C110.359 10.9237 110.347 11.2194 110.323 11.654C110.311 12.0886 110.293 12.5836 110.269 13.1389C110.245 13.6943 110.214 14.2677 110.178 14.8593C110.142 15.4508 110.1 15.9699 110.051 16.4166Z" fill="white"/>
<path d="M93.5921 9.26367C94.4734 9.26367 95.2279 9.39043 95.8556 9.64395C96.4834 9.8854 96.9965 10.2476 97.3949 10.7305C97.7933 11.2013 98.083 11.7808 98.2641 12.4689C98.4452 13.145 98.5357 13.9176 98.5357 14.7868C98.5357 15.2697 98.4995 15.7948 98.4271 16.3623C98.3667 16.9297 98.246 17.5031 98.0649 18.0826C97.8959 18.65 97.6605 19.1993 97.3587 19.7305C97.0569 20.2616 96.6645 20.7325 96.1816 21.1429C95.7108 21.5534 95.1434 21.8854 94.4794 22.1389C93.8154 22.3804 93.0307 22.5011 92.1253 22.5011C91.1233 22.5011 90.2903 22.3502 89.6263 22.0484C88.9744 21.7466 88.4492 21.3421 88.0508 20.8351C87.6645 20.316 87.3868 19.7063 87.2178 19.0061C87.0609 18.3059 86.9824 17.5574 86.9824 16.7606C86.9824 15.819 87.0911 14.9015 87.3084 14.0081C87.5257 13.1027 87.8879 12.2999 88.3949 11.5997C88.914 10.8995 89.5961 10.3381 90.4412 9.91558C91.2862 9.48098 92.3365 9.26367 93.5921 9.26367ZM93.2118 12.0705C92.7893 12.0705 92.421 12.149 92.1072 12.3059C91.8053 12.4508 91.5458 12.65 91.3285 12.9035C91.1233 13.157 90.9542 13.4407 90.8215 13.7546C90.7007 14.0685 90.6041 14.3944 90.5317 14.7325C90.4593 15.0584 90.411 15.3784 90.3868 15.6922C90.3627 15.994 90.3506 16.2657 90.3506 16.5071C90.3506 17.6057 90.5317 18.4085 90.8939 18.9156C91.2681 19.4226 91.7933 19.6761 92.4693 19.6761C93.0247 19.6761 93.4774 19.5011 93.8275 19.151C94.1776 18.7888 94.4492 18.3602 94.6424 17.8653C94.8476 17.3582 94.9864 16.8391 95.0589 16.3079C95.1313 15.7647 95.1675 15.3059 95.1675 14.9317C95.1675 14.0504 95.0166 13.3562 94.7148 12.8492C94.413 12.3301 93.912 12.0705 93.2118 12.0705Z" fill="white"/>
<path d="M77.8872 22.3195C77.1991 22.3195 76.7101 22.1867 76.4204 21.9211C76.1427 21.6434 76.0039 21.239 76.0039 20.7078C76.0039 20.5629 76.0099 20.3215 76.022 19.9834C76.0462 19.6333 76.0763 19.2229 76.1126 18.7521C76.1488 18.2812 76.185 17.7682 76.2212 17.2128C76.2695 16.6454 76.3178 16.072 76.3661 15.4925C76.4627 14.2732 76.5291 13.2833 76.5653 12.5227C76.6136 11.7621 76.6498 11.1645 76.6739 10.7299C76.7101 10.1867 76.7464 9.84262 76.7826 9.69775C76.8188 9.54081 76.8973 9.46234 77.018 9.46234C77.3922 9.46234 77.7725 9.4563 78.1588 9.44423C78.5572 9.42008 78.9375 9.39594 79.2997 9.37179C79.6618 9.34765 79.9999 9.32954 80.3138 9.31747C80.6397 9.29332 80.9295 9.28125 81.183 9.28125C81.9556 9.28125 82.6196 9.37783 83.1749 9.57099C83.7303 9.76415 84.1769 10.0358 84.515 10.3859C84.8651 10.736 85.1186 11.1585 85.2755 11.6535C85.4445 12.1484 85.529 12.7038 85.529 13.3195C85.529 14.2611 85.3419 15.1002 84.9677 15.8366C84.5934 16.573 83.9958 17.1344 83.1749 17.5207L84.696 19.6937C84.9737 20.1042 85.185 20.4241 85.3298 20.6535C85.4747 20.8708 85.5471 21.0337 85.5471 21.1424C85.5471 21.2269 85.4928 21.3476 85.3842 21.5046C85.2876 21.6494 85.1367 21.8003 84.9315 21.9573C84.7383 22.1022 84.4968 22.2289 84.2071 22.3376C83.9294 22.4462 83.6156 22.5005 83.2655 22.5005C82.8791 22.5005 82.5411 22.3738 82.2514 22.1203C81.9737 21.8667 81.7202 21.5348 81.4908 21.1243C81.2735 20.7018 81.0804 20.2189 80.9113 19.6756C80.7544 19.1323 80.6035 18.5649 80.4586 17.9734C80.024 17.9492 79.6679 17.907 79.3902 17.8466C79.354 18.3778 79.3178 18.8849 79.2816 19.3678C79.2453 19.8507 79.2152 20.2853 79.191 20.6716C79.1669 21.0458 79.1427 21.3597 79.1186 21.6132C79.0944 21.8547 79.0824 21.9995 79.0824 22.0478C79.0703 22.1444 79.0462 22.2168 79.0099 22.2651C78.9737 22.3014 78.9013 22.3195 78.7926 22.3195H77.8872ZM80.8208 11.9975C80.6759 11.9975 80.513 12.0096 80.3319 12.0338C80.1508 12.0458 79.9576 12.0639 79.7524 12.0881C79.7282 12.5106 79.6981 13.0177 79.6618 13.6092C79.6377 14.1887 79.6015 14.8104 79.5532 15.4744C79.9757 15.571 80.3439 15.6193 80.6578 15.6193C81.0321 15.6193 81.3339 15.5468 81.5633 15.402C81.8047 15.2571 81.9918 15.082 82.1246 14.8768C82.2574 14.6595 82.3419 14.4301 82.3781 14.1887C82.4264 13.9472 82.4506 13.7299 82.4506 13.5368C82.4506 13.0418 82.3298 12.6615 82.0884 12.3959C81.847 12.1303 81.4244 11.9975 80.8208 11.9975Z" fill="white"/>
<path d="M68.8169 22.32C68.1408 22.32 67.6579 22.1872 67.3682 21.9216C67.0785 21.656 66.9336 21.2758 66.9336 20.7808C66.9336 20.5393 66.9517 20.1289 66.9879 19.5494C67.0241 18.9578 67.0724 18.2878 67.1328 17.5393C67.1931 16.7908 67.2535 16.0001 67.3139 15.1671C67.3742 14.3341 67.4346 13.5494 67.495 12.813C67.5553 12.0766 67.6036 11.4307 67.6398 10.8754C67.676 10.32 67.6942 9.93975 67.6942 9.73452C67.6942 9.55343 67.7907 9.46289 67.9839 9.46289H74.3581C74.4306 9.46289 74.497 9.481 74.5573 9.51722C74.6177 9.55343 74.6479 9.61983 74.6479 9.71641L74.5754 10.7848C74.5513 11.147 74.4487 11.4428 74.2676 11.6721C74.0986 11.8894 73.7424 11.9981 73.1992 11.9981H70.7002L70.5191 14.5514H73.0905C73.163 14.5514 73.2294 14.5695 73.2897 14.6057C73.3501 14.642 73.3803 14.7084 73.3803 14.8049L73.3078 15.8733C73.2837 16.2355 73.1811 16.5313 73 16.7607C72.831 16.978 72.4748 17.0866 71.9316 17.0866H70.3561L70.1569 19.7848H74.1408C74.2133 19.7848 74.2797 19.809 74.34 19.8572C74.4004 19.8935 74.4306 19.9538 74.4306 20.0383L74.3581 21.1067C74.334 21.4689 74.2314 21.7647 74.0503 21.9941C73.8813 22.2114 73.5251 22.32 72.9819 22.32H68.8169Z" fill="white"/>
<path d="M60.2863 19.6209C60.5398 18.7759 60.7571 18.0334 60.9382 17.3936C61.1193 16.7537 61.3004 16.0958 61.4815 15.4197C61.6626 14.7437 61.8557 13.9831 62.061 13.138C62.2662 12.293 62.5258 11.2427 62.8396 9.98715C62.9 9.75777 62.9664 9.6129 63.0388 9.55254C63.1233 9.48011 63.3044 9.44389 63.5821 9.44389C63.7028 9.44389 63.8899 9.45596 64.1435 9.48011C64.409 9.49218 64.6746 9.54651 64.9402 9.64308C65.2058 9.72759 65.4412 9.86039 65.6465 10.0415C65.8517 10.2105 65.9543 10.458 65.9543 10.7839C65.9543 11.0737 65.8698 11.5203 65.7008 12.124C65.5439 12.7155 65.3386 13.3916 65.0851 14.1521C64.8316 14.9127 64.5479 15.7095 64.234 16.5425C63.9322 17.3634 63.6304 18.1421 63.3286 18.8785C63.0268 19.6149 62.7491 20.2608 62.4956 20.8161C62.2541 21.3714 62.073 21.7578 61.9523 21.9751C61.8195 22.2044 61.5841 22.3191 61.2461 22.3191H59.3447C59.0429 22.3191 58.7893 22.2648 58.5841 22.1561C58.391 22.0354 58.228 21.8785 58.0952 21.6853C57.9624 21.4922 57.8537 21.2749 57.7692 21.0334C57.6847 20.7799 57.6123 20.5264 57.5519 20.2728C57.1415 18.5586 56.7853 17.0737 56.4835 15.8181C56.1938 14.5505 55.9523 13.4942 55.7592 12.6491C55.566 11.792 55.4211 11.134 55.3246 10.6753C55.228 10.2165 55.1797 9.93282 55.1797 9.82417C55.1797 9.69137 55.2763 9.59479 55.4694 9.53443C55.6626 9.462 55.9885 9.42578 56.4473 9.42578C56.9302 9.42578 57.3225 9.47407 57.6244 9.57065C57.9382 9.66723 58.1857 9.80606 58.3668 9.98715C58.56 10.1562 58.6988 10.3614 58.7833 10.6028C58.8799 10.8322 58.9463 11.0857 58.9825 11.3634C59.0187 11.5686 59.0549 11.8161 59.0911 12.1059C59.1274 12.3835 59.1877 12.8121 59.2722 13.3916C59.3688 13.971 59.4956 14.7558 59.6525 15.7457C59.8095 16.7236 60.0207 18.0153 60.2863 19.6209Z" fill="white"/>
<path d="M51.8384 22.32C51.1623 22.32 50.6794 22.1872 50.3897 21.9216C50.0999 21.656 49.9551 21.2758 49.9551 20.7808C49.9551 20.5393 49.9732 20.1289 50.0094 19.5494C50.0456 18.9578 50.0939 18.2878 50.1543 17.5393C50.2146 16.7908 50.275 16.0001 50.3354 15.1671C50.3957 14.3341 50.4561 13.5494 50.5164 12.813C50.5768 12.0766 50.6251 11.4307 50.6613 10.8754C50.6975 10.32 50.7156 9.93975 50.7156 9.73452C50.7156 9.55343 50.8122 9.46289 51.0054 9.46289H52.0014C52.7378 9.46289 53.2327 9.61983 53.4863 9.93372C53.7398 10.2476 53.8665 10.7124 53.8665 11.3281C53.8665 11.3884 53.8545 11.5816 53.8303 11.9076C53.8183 12.2335 53.7941 12.644 53.7579 13.1389C53.7217 13.6339 53.6794 14.1892 53.6311 14.8049C53.5949 15.4086 53.5527 16.0303 53.5044 16.6701C53.4682 17.31 53.4259 17.9377 53.3776 18.5534C53.3414 19.157 53.3052 19.7063 53.269 20.2013C53.2327 20.6963 53.2026 21.1128 53.1784 21.4508C53.1543 21.7768 53.1362 21.976 53.1241 22.0484C53.112 22.145 53.0879 22.2174 53.0517 22.2657C53.0154 22.3019 52.943 22.32 52.8343 22.32H51.8384Z" fill="white"/>
<path d="M38.637 9.73539C38.6491 9.63881 38.6853 9.57241 38.7456 9.53619C38.8181 9.4879 38.8845 9.46376 38.9448 9.46376C39.7658 9.46376 40.5324 9.43961 41.2446 9.39132C41.969 9.33096 42.5364 9.30078 42.9468 9.30078C43.973 9.30078 44.8301 9.4034 45.5183 9.60863C46.2185 9.81386 46.7798 10.1338 47.2024 10.5684C47.637 11.003 47.9448 11.5644 48.1259 12.2525C48.307 12.9406 48.3975 13.7676 48.3975 14.7334C48.3975 15.7112 48.2949 16.671 48.0897 17.6126C47.8965 18.5422 47.5525 19.3692 47.0575 20.0935C46.5625 20.8179 45.8925 21.4034 45.0474 21.8501C44.2144 22.2847 43.1581 22.502 41.8784 22.502C41.2869 22.502 40.7436 22.4899 40.2487 22.4658C39.7658 22.4416 39.3493 22.3692 38.9992 22.2484C38.6491 22.1277 38.3774 21.9466 38.1843 21.7052C37.9911 21.4637 37.8945 21.1317 37.8945 20.7092C37.8945 20.5523 37.9006 20.3169 37.9126 20.003C37.9368 19.6891 37.9609 19.3149 37.9851 18.8802C38.0213 18.4456 38.0575 17.9688 38.0937 17.4497C38.142 16.9185 38.1903 16.3631 38.2386 15.7837C38.3352 14.5885 38.4076 13.6348 38.4559 12.9225C38.5163 12.2102 38.5525 11.6549 38.5646 11.2565C38.5887 10.8461 38.6008 10.5382 38.6008 10.333C38.6128 10.1277 38.6249 9.92855 38.637 9.73539ZM42.0052 19.6408C42.6812 19.6408 43.2185 19.4959 43.6169 19.2062C44.0273 18.9165 44.3412 18.5483 44.5585 18.1016C44.7758 17.6549 44.9207 17.166 44.9931 16.6348C45.0655 16.1036 45.1018 15.6026 45.1018 15.1318C45.1018 14.6247 45.0655 14.1841 44.9931 13.8098C44.9328 13.4235 44.8181 13.1036 44.649 12.8501C44.4921 12.5966 44.2688 12.4094 43.979 12.2887C43.6893 12.1559 43.3271 12.0895 42.8925 12.0895C42.7597 12.0895 42.5907 12.0955 42.3855 12.1076C42.1802 12.1197 41.9328 12.1378 41.643 12.1619C41.6189 12.6086 41.5887 13.1398 41.5525 13.7555C41.5163 14.3591 41.474 14.999 41.4257 15.675C41.3895 16.339 41.3472 17.0151 41.299 17.7032C41.2507 18.3792 41.2024 19.007 41.1541 19.5865C41.3352 19.6106 41.4981 19.6287 41.643 19.6408C41.7879 19.6408 41.9086 19.6408 42.0052 19.6408Z" fill="white"/>
<path d="M93.5921 9.28125C94.4734 9.28125 95.2279 9.40801 95.8557 9.66153C96.4834 9.90298 96.9965 10.2652 97.3949 10.748C97.7933 11.2189 98.083 11.7984 98.2641 12.4865C98.4452 13.1625 98.5357 13.9352 98.5357 14.8044C98.5357 15.2873 98.4995 15.8124 98.4271 16.3798C98.3667 16.9472 98.246 17.5207 98.0649 18.1002C97.8959 18.6676 97.6605 19.2169 97.3587 19.748C97.0569 20.2792 96.6645 20.7501 96.1816 21.1605C95.7108 21.571 95.1434 21.903 94.4794 22.1565C93.8154 22.3979 93.0307 22.5187 92.1253 22.5187C91.1233 22.5187 90.2903 22.3678 89.6263 22.0659C88.9744 21.7641 88.4492 21.3597 88.0508 20.8527C87.6645 20.3336 87.3868 19.7239 87.2178 19.0237C87.0609 18.3235 86.9824 17.575 86.9824 16.7782C86.9824 15.8366 87.0911 14.9191 87.3084 14.0257C87.5257 13.1203 87.8879 12.3175 88.3949 11.6173C88.914 10.9171 89.5961 10.3557 90.4412 9.93316C91.2862 9.49855 92.3365 9.28125 93.5921 9.28125Z" fill="#B2DFE5"/>
<path fill-rule="evenodd" clip-rule="evenodd" d="M87.2815 14.1385C87.2903 14.1008 87.2992 14.0631 87.3084 14.0254C87.5188 13.1486 87.8651 12.368 88.3473 11.6836C89.0945 12.4073 89.3948 13.5977 89.68 14.7286C90.1616 16.638 90.6005 18.3779 93.0752 17.416C93.6983 17.1738 94.2438 16.9342 94.7208 16.7247C96.7981 15.8122 97.5762 15.4704 97.8044 17.9727V18.8355C97.6768 19.1453 97.5282 19.4494 97.3587 19.7478C97.0569 20.2789 96.6645 20.7498 96.1816 21.1602C95.7108 21.5707 95.1434 21.9027 94.4794 22.1562C94.0296 22.3198 93.5243 22.4279 92.9636 22.4807L89.3875 21.9475C88.8449 21.661 88.3994 21.296 88.0508 20.8524C87.6645 20.3333 87.3868 19.7236 87.2178 19.0234C87.0609 18.3232 86.9824 17.5747 86.9824 16.7779C86.9824 16.5022 86.9917 16.2285 87.0104 15.9569L87.2815 14.1385Z" fill="#46B3C2"/>
<path d="M95.1776 11.3406L95.1915 11.3463L95.2056 11.3517C95.5646 11.4898 95.8128 11.6759 95.998 11.9005L96.0052 11.9092L96.0125 11.9178C96.2118 12.1533 96.3899 12.48 96.5129 12.9473L96.5128 12.9473L96.5149 12.955C96.6466 13.4467 96.7249 14.0569 96.7249 14.8044C96.7249 15.1982 96.6952 15.6457 96.6308 16.1505L96.6284 16.1694L96.6264 16.1883C96.5794 16.6301 96.4843 17.0869 96.3365 17.56L96.3329 17.5716L96.3294 17.5832C96.2008 18.0149 96.0204 18.4378 95.7842 18.8535C95.5908 19.1939 95.3366 19.5021 95.0088 19.7807L95.0002 19.7881L94.9916 19.7955C94.7048 20.0456 94.3326 20.2725 93.8475 20.4594C93.4302 20.609 92.8685 20.7078 92.1253 20.7078C91.2951 20.7078 90.7392 20.5814 90.381 20.4198C89.9716 20.2294 89.6897 20.0013 89.4891 19.7519C89.2729 19.4557 89.0973 19.0854 88.9815 18.6127C88.8589 18.0599 88.7933 17.4502 88.7933 16.7782C88.7933 15.9773 88.8855 15.2036 89.0679 14.4537L89.0679 14.4537L89.0692 14.4483C89.2346 13.7592 89.5009 13.1799 89.8555 12.6877C90.1907 12.2384 90.6422 11.8572 91.251 11.5528L91.2602 11.5482L91.2694 11.5435C91.7894 11.2761 92.5357 11.0921 93.5921 11.0921C94.3077 11.0921 94.8195 11.1961 95.1776 11.3406Z" stroke="black" stroke-width="3.62173"/>
<path d="M95.3132 11.0048L95.3244 11.0093L95.3356 11.0137C95.7484 11.1724 96.0496 11.3938 96.2774 11.67L96.2832 11.6769L96.289 11.6838C96.5281 11.9664 96.7285 12.3437 96.8631 12.8552L96.8631 12.8552L96.8647 12.8613C97.0063 13.3898 97.087 14.0326 97.087 14.8044C97.087 15.216 97.0561 15.6791 96.9901 16.1964L96.9881 16.2115L96.9865 16.2266C96.9368 16.6935 96.8367 17.1736 96.6822 17.668L96.6793 17.6773L96.6765 17.6866C96.5398 18.1454 96.3484 18.5936 96.0991 19.0324C95.884 19.4109 95.6022 19.7517 95.2434 20.0567L95.2365 20.0626L95.2296 20.0685C94.9061 20.3506 94.4949 20.5986 93.9738 20.7988C93.5075 20.9667 92.9013 21.07 92.1253 21.07C91.2604 21.07 90.6492 20.9386 90.2301 20.7491C89.7716 20.5361 89.4414 20.2727 89.2015 19.9722C88.9516 19.6318 88.7554 19.2138 88.6288 18.695C88.4993 18.1127 88.4311 17.4752 88.4311 16.7782C88.4311 15.9491 88.5266 15.1467 88.716 14.3681L88.716 14.3681L88.7171 14.3638C88.8928 13.6314 89.1783 13.0073 89.5634 12.4736C89.9353 11.9742 90.4329 11.557 91.089 11.2289L91.0964 11.2252L91.1037 11.2215C91.6888 10.9206 92.4959 10.7299 93.5921 10.7299C94.3408 10.7299 94.9012 10.8384 95.3132 11.0048Z" stroke="white" stroke-width="2.89738"/>
<defs>
<clipPath id="clip0_7554_201193">
<rect x="3.76758" y="5.89844" width="22.6392" height="22.6392" rx="11.3196" fill="white"/>
</clipPath>
</defs>
</svg>
