<svg width="144" height="132" viewBox="0 0 144 132" fill="none" xmlns="http://www.w3.org/2000/svg">
<path d="M120.274 70.7977C120.274 100.688 95.2431 124.92 64.3657 124.92C33.4882 124.92 8.45703 100.688 8.45703 70.7977C8.45703 40.907 33.4882 16.6758 64.3657 16.6758C95.2431 16.6758 120.274 40.907 120.274 70.7977Z" fill="white"/>
<path d="M99.53 104.047C102.153 103.956 104.452 103.861 106.428 103.763C108.404 103.664 110.43 103.549 112.508 103.417C114.586 103.285 116.913 103.108 119.49 102.886C122.067 102.663 125.274 102.399 129.111 102.093C129.815 102.045 130.287 102.092 130.526 102.234C130.811 102.397 131.086 102.857 131.351 103.615C131.467 103.944 131.612 104.465 131.786 105.179C132.006 105.914 132.107 106.689 132.089 107.503C132.105 108.305 131.956 109.07 131.642 109.797C131.362 110.514 130.763 111.022 129.845 111.324C129.028 111.592 127.689 111.775 125.827 111.873C124.011 111.993 121.91 112.059 119.525 112.071C117.14 112.084 114.624 112.048 111.977 111.963C109.376 111.9 106.894 111.797 104.531 111.656C102.167 111.515 100.082 111.355 98.2755 111.178C96.4802 111.033 95.2188 110.897 94.4912 110.769C93.718 110.619 93.1698 110.083 92.8466 109.162L91.0285 103.976C90.7399 103.153 90.6505 102.412 90.7604 101.751C90.9158 101.113 91.2021 100.523 91.6193 99.9822C92.0364 99.4412 92.5447 98.9438 93.1441 98.4898C93.7775 98.0247 94.4224 97.5925 95.0789 97.1932C99.5158 94.4871 103.358 92.1414 106.607 90.1562C109.901 88.1927 112.646 86.5565 114.842 85.2475C117.072 83.9273 118.787 82.9232 119.987 82.2352C121.187 81.5472 121.94 81.1529 122.246 81.0524C122.62 80.9294 122.984 81.1034 123.339 81.5743C123.728 82.034 124.142 82.8894 124.58 84.1405C125.042 85.4574 125.281 86.5721 125.298 87.4845C125.326 88.4299 125.171 89.2333 124.834 89.8948C124.543 90.578 124.097 91.1466 123.498 91.6005C122.944 92.0762 122.293 92.492 121.546 92.8477C121.002 93.1365 120.34 93.4643 119.558 93.8313C118.811 94.1871 117.661 94.7484 116.109 95.5152C114.569 96.315 112.48 97.387 109.841 98.7313C107.236 100.064 103.799 101.836 99.53 104.047Z" fill="black"/>
<path fill-rule="evenodd" clip-rule="evenodd" d="M93.1448 98.4896C93.7782 98.0245 94.4231 97.5923 95.0796 97.193C99.5165 94.4868 103.359 92.1411 106.607 90.1559L114.842 85.2472C117.072 83.9271 118.787 82.923 119.987 82.235C121.187 81.547 121.94 81.1527 122.247 81.0521C122.621 80.9292 122.985 81.1032 123.34 81.5741C123.729 82.0338 124.142 82.8892 124.581 84.1402C125.043 85.4571 125.282 86.5718 125.298 87.4843C125.308 87.7951 125.297 88.0906 125.267 88.3707C125.266 88.3771 125.265 88.3835 125.265 88.3898C125.202 88.9539 125.059 89.4555 124.835 89.8945C124.543 90.5778 124.098 91.1463 123.499 91.6003C122.945 92.076 122.294 92.4917 121.547 92.8475C121.003 93.1362 120.34 93.4641 119.559 93.831C118.917 94.1367 117.978 94.594 116.742 95.2029C116.539 95.3028 116.329 95.4069 116.11 95.515C115.042 96.0697 113.709 96.7553 112.113 97.572C111.407 97.9328 110.65 98.3191 109.842 98.7311C108.785 99.2721 107.59 99.8854 106.259 100.571C104.598 101.426 102.723 102.394 100.635 103.475C100.307 103.645 99.9736 103.817 99.6348 103.993C99.6002 104.011 99.5655 104.029 99.5307 104.047C99.5713 104.045 99.6118 104.044 99.6522 104.042C101.631 103.973 103.424 103.902 105.031 103.829C105.165 103.823 105.298 103.817 105.43 103.811C105.772 103.795 106.105 103.779 106.429 103.763C108.368 103.666 110.356 103.553 112.393 103.424C112.397 103.424 112.401 103.424 112.405 103.424C112.439 103.422 112.474 103.419 112.509 103.417C114.473 103.292 116.661 103.127 119.072 102.921C119.211 102.91 119.35 102.898 119.491 102.885C122.068 102.663 125.275 102.399 129.112 102.092C129.816 102.045 130.287 102.092 130.527 102.233C130.811 102.397 131.087 102.857 131.352 103.614C131.468 103.944 131.612 104.465 131.787 105.179C132.007 105.914 132.108 106.689 132.09 107.502C132.105 108.305 131.956 109.07 131.643 109.797C131.363 110.513 130.764 111.022 129.845 111.324C129.029 111.592 127.69 111.775 125.828 111.873C124.011 111.993 121.911 112.059 119.526 112.071C117.141 112.084 114.625 112.048 111.978 111.963C109.689 111.907 107.492 111.821 105.387 111.705C105.1 111.689 104.815 111.673 104.531 111.656C102.806 111.553 101.228 111.44 99.7994 111.317C99.7491 111.313 99.6989 111.309 99.649 111.304C99.1748 111.263 98.7172 111.221 98.2762 111.178C96.4809 111.033 95.2194 110.897 94.4918 110.769C93.7187 110.619 93.1705 110.083 92.8473 109.161L91.0292 103.976C90.7406 103.153 90.6512 102.411 90.7611 101.751C90.9165 101.113 91.2027 100.523 91.6199 99.9819C92.0371 99.441 92.5454 98.9435 93.1448 98.4896ZM131.622 94.3581C132.432 94.5005 133.564 94.8015 134.724 95.4781C136.584 96.5599 137.57 98.0423 137.995 98.7526C138.499 99.5958 138.835 100.43 139.064 101.081C139.293 101.735 139.497 102.495 139.672 103.202C140.076 104.631 140.252 106.08 140.234 107.519C140.247 109.299 139.907 111.056 139.203 112.727C137.848 116.053 135.077 117.93 132.463 118.789C130.535 119.422 128.263 119.638 126.325 119.742C124.311 119.873 122.053 119.941 119.57 119.954C117.08 119.968 114.469 119.93 111.741 119.843C109.061 119.777 106.49 119.671 104.029 119.524C101.62 119.38 99.4495 119.215 97.5285 119.028C95.7656 118.885 94.1772 118.726 93.0348 118.525L92.9639 118.513L92.8933 118.499C88.467 117.641 86.0957 114.433 85.1358 111.695L83.3177 106.51C82.7261 104.823 82.3463 102.751 82.7211 100.498L82.7676 100.218L82.8345 99.9433C83.2535 98.2217 84.029 96.6472 85.0943 95.2659C85.9808 94.1163 87.0102 93.1264 88.1268 92.2807L88.1747 92.2445L88.2231 92.2089C89.0407 91.6085 89.8805 91.0452 90.7428 90.5205C95.1765 87.8163 99.0155 85.4728 102.26 83.4899L102.299 83.4663L110.583 78.5282L110.594 78.5219C112.834 77.1959 114.587 76.1688 115.837 75.4521C116.48 75.0839 117.069 74.7555 117.578 74.4893L117.589 74.4834C117.927 74.3063 118.748 73.8768 119.629 73.5871C121.926 72.8325 124.345 73.0379 126.402 74.0202C128.08 74.8211 129.163 75.9611 129.794 76.7658C131.096 78.3831 131.847 80.3356 132.292 81.6065C132.894 83.3225 133.396 85.2802 133.44 87.3005C133.488 89.0953 133.22 91.1368 132.259 93.1383C132.069 93.5582 131.856 93.9652 131.622 94.3581Z" fill="white"/>
<path d="M103.821 111.634C99.715 111.585 88.4198 113.029 80.3428 114.944L92.8159 106.796L103.821 111.634Z" fill="black"/>
<path d="M27.179 24.3294C27.179 28.5995 23.6031 32.0611 19.192 32.0611C14.781 32.0611 11.2051 28.5995 11.2051 24.3294C11.2051 20.0593 14.781 16.5977 19.192 16.5977C23.6031 16.5977 27.179 20.0593 27.179 24.3294Z" fill="#35ACBC"/>
<path fill-rule="evenodd" clip-rule="evenodd" d="M35.3225 24.3298C35.3225 32.9538 28.1007 39.9448 19.192 39.9448C10.2834 39.9448 3.06152 32.9538 3.06152 24.3298C3.06152 15.7059 10.2834 8.71484 19.192 8.71484C28.1007 8.71484 35.3225 15.7059 35.3225 24.3298ZM19.192 32.0615C23.6031 32.0615 27.179 28.5999 27.179 24.3298C27.179 20.0597 23.6031 16.5981 19.192 16.5981C14.781 16.5981 11.2051 20.0597 11.2051 24.3298C11.2051 28.5999 14.781 32.0615 19.192 32.0615Z" fill="white"/>
<path d="M48.4215 12.5825C48.4215 15.178 46.248 17.2821 43.5667 17.2821C40.8855 17.2821 38.7119 15.178 38.7119 12.5825C38.7119 9.98692 40.8855 7.88281 43.5667 7.88281C46.248 7.88281 48.4215 9.98692 48.4215 12.5825Z" fill="#0097AB"/>
<path fill-rule="evenodd" clip-rule="evenodd" d="M56.5651 12.583C56.5651 19.5323 50.7455 25.1659 43.5667 25.1659C36.3879 25.1659 30.5684 19.5323 30.5684 12.583C30.5684 5.63358 36.3879 0 43.5667 0C50.7455 0 56.5651 5.63358 56.5651 12.583ZM43.5667 17.2826C46.248 17.2826 48.4215 15.1785 48.4215 12.583C48.4215 9.98741 46.248 7.8833 43.5667 7.8833C40.8855 7.8833 38.7119 9.98741 38.7119 12.583C38.7119 15.1785 40.8855 17.2826 43.5667 17.2826Z" fill="white"/>
<path d="M0 68.9099C0 57.9876 8.4414 48.9225 19.336 48.1453L33.41 47.1413C45.991 46.2438 56.6917 56.2083 56.6917 68.8213C56.6917 81.3264 46.1655 91.2523 33.6819 90.5189L19.5964 89.6914C8.59251 89.0449 0 79.9328 0 68.9099Z" fill="white"/>
<g clip-path="url(#clip0_7619_87869)">
<path opacity="0.7" d="M69.9565 73.8303C29.0961 89.7122 46.6268 28.1061 18.9883 15.168L4.49634 112.369L114.907 128.831L114.907 79.1223C112.24 49.8759 101.669 61.504 69.9565 73.8303Z" fill="#0097AB"/>
<rect opacity="0.3" x="15.9648" y="24.2441" width="108.528" height="108.528" fill="#35ACBC"/>
</g>
<rect x="20.6257" y="28.9098" width="87.3083" height="84.2253" rx="42.1127" stroke="black" stroke-width="9.1615"/>
<path d="M40.6998 55.4751L40.6989 55.4805C40.5591 56.324 40.444 56.9802 40.3638 57.3158C40.2705 57.7389 40.0835 58.3427 39.6421 58.8742L39.5397 58.9976L39.4212 59.1056C38.5342 59.9142 37.4324 59.8346 37.0802 59.8024L34.4941 59.5661C32.5023 59.3841 30.5385 58.7854 29.2888 57.2599C28.118 55.8307 27.7976 54.0454 27.9745 52.2311C28.0488 51.4698 28.2194 50.2438 28.4749 48.5963C28.7362 46.898 29.0506 44.9809 29.4176 42.8461C29.7819 40.7269 30.1581 38.4863 30.5462 36.1243C30.936 33.7517 31.3126 31.5162 31.6759 29.4181C32.0365 27.3352 32.3399 25.5121 32.5864 23.9476C32.8362 22.3626 32.9787 21.3434 33.0284 20.8335C33.0861 20.2414 33.3132 19.3883 34.0701 18.7413C34.8416 18.0818 35.7382 17.9978 36.3596 18.0546L38.9456 18.2909C41.0727 18.4852 43.2739 19.1687 44.4185 21.0889C44.4185 21.0889 44.4186 21.0889 44.4186 21.0889L40.6998 55.4751ZM40.6998 55.4751C40.8564 54.5161 41.0507 53.3339 41.2826 51.9282C41.5155 50.5163 41.7631 48.9518 42.0254 47.235C42.3229 45.4832 42.6079 43.6965 42.8806 41.8749C43.1836 40.0607 43.4663 38.2956 43.7286 36.5794C44.0247 34.8355 44.2888 33.2606 44.5207 31.855C44.7518 30.454 44.9315 29.2724 45.0579 28.3162M40.6998 55.4751L45.0579 28.3162M45.0579 28.3162C45.201 27.4524 45.3014 26.8192 45.3273 26.5534C45.5207 24.5703 45.3451 22.6432 44.4186 21.0889L45.0579 28.3162Z" fill="black" stroke="white" stroke-width="4.58075"/>
<rect x="19.1914" y="37.959" width="10.9625" height="16.2458" fill="white"/>
<path d="M20.7023 46.083C20.7023 48.5111 18.669 50.4794 16.1607 50.4794C13.6525 50.4794 11.6191 48.5111 11.6191 46.083C11.6191 43.6549 13.6525 41.6865 16.1607 41.6865C18.669 41.6865 20.7023 43.6549 20.7023 46.083Z" fill="black"/>
<path fill-rule="evenodd" clip-rule="evenodd" d="M28.8459 46.0825C28.8459 52.8644 23.1665 58.3623 16.1607 58.3623C9.15492 58.3623 3.47559 52.8644 3.47559 46.0825C3.47559 39.3006 9.15492 33.8027 16.1607 33.8027C23.1665 33.8027 28.8459 39.3006 28.8459 46.0825ZM16.1607 50.479C18.669 50.479 20.7023 48.5106 20.7023 46.0825C20.7023 43.6544 18.669 41.686 16.1607 41.686C13.6525 41.686 11.6191 43.6544 11.6191 46.0825C11.6191 48.5106 13.6525 50.479 16.1607 50.479Z" fill="white"/>
<path d="M10.2897 68.9366C10.2897 62.5585 15.2183 57.2646 21.5801 56.8091L32.7354 56.0105C40.1968 55.4764 46.5442 61.3856 46.5442 68.8661C46.5442 76.2825 40.3007 82.1688 32.8972 81.7323L21.7327 81.0741C15.3068 80.6953 10.2897 75.3737 10.2897 68.9366Z" fill="white" stroke="black" stroke-width="9.1615"/>
<ellipse cx="33.3717" cy="68.7483" rx="4.68618" ry="4.53642" fill="black"/>
<path d="M59.2542 49.1725C59.3202 48.8517 59.4612 48.6377 59.6772 48.5303C59.9377 48.3853 60.1713 48.3197 60.3781 48.3337C63.1907 48.5234 65.8233 48.6198 68.2759 48.6226C70.7729 48.5878 72.7246 48.6179 74.1309 48.7128C77.6466 48.95 80.557 49.4919 82.8623 50.3385C85.2089 51.1879 87.0506 52.3894 88.3875 53.943C89.7657 55.4994 90.6772 57.4512 91.1222 59.7983C91.5672 62.1455 91.6666 64.9368 91.4203 68.1723C91.171 71.4482 90.5748 74.6397 89.6315 77.7468C88.7328 80.8163 87.3431 83.5072 85.4627 85.8194C83.5822 88.1316 81.1374 89.9382 78.1282 91.2393C75.1635 92.5027 71.489 92.9865 67.1047 92.6907C65.0781 92.5539 63.2199 92.3879 61.5302 92.1926C59.882 92.0001 58.4735 91.6612 57.3048 91.1758C56.1361 90.6905 55.2516 90.021 54.6514 89.1675C54.0512 88.314 53.8049 87.1795 53.9127 85.7639C53.9527 85.2382 54.0334 84.4509 54.1548 83.4022C54.3175 82.3562 54.4957 81.1081 54.6892 79.6577C54.9241 78.2101 55.1697 76.621 55.4262 74.8903C55.727 73.1219 56.0341 71.2727 56.3472 69.3426C56.9828 65.361 57.4742 62.1827 57.8212 59.8077C58.2096 57.4355 58.4753 55.5835 58.6182 54.2516C58.8056 52.8821 58.9254 51.8536 58.9777 51.1661C59.0714 50.4813 59.1636 49.8168 59.2542 49.1725Z" fill="white"/>
<path d="M59.2542 49.1725C59.3202 48.8517 59.4612 48.6377 59.6772 48.5303C59.9377 48.3853 60.1713 48.3197 60.3781 48.3337C63.1907 48.5234 65.8233 48.6198 68.2759 48.6226C70.7729 48.5878 72.7246 48.6179 74.1309 48.7128C77.6466 48.95 80.557 49.4919 82.8623 50.3385C85.2089 51.1879 87.0506 52.3894 88.3875 53.943C89.7657 55.4994 90.6772 57.4512 91.1222 59.7983C91.5672 62.1455 91.6666 64.9368 91.4203 68.1723C91.171 71.4482 90.5748 74.6397 89.6315 77.7468C88.7328 80.8163 87.3431 83.5072 85.4627 85.8194C83.5822 88.1316 81.1374 89.9382 78.1282 91.2393C75.1635 92.5027 71.489 92.9865 67.1047 92.6907C65.0781 92.5539 63.2199 92.3879 61.5302 92.1926C59.882 92.0001 58.4735 91.6612 57.3048 91.1758C56.1361 90.6905 55.2516 90.021 54.6514 89.1675C54.0512 88.314 53.8049 87.1795 53.9127 85.7639C53.9527 85.2382 54.0334 84.4509 54.1548 83.4022C54.3175 82.3562 54.4957 81.1081 54.6892 79.6577C54.9241 78.2101 55.1697 76.621 55.4262 74.8903C55.727 73.1219 56.0341 71.2727 56.3472 69.3426C56.9828 65.361 57.4742 62.1827 57.8212 59.8077C58.2096 57.4355 58.4753 55.5835 58.6182 54.2516C58.8056 52.8821 58.9254 51.8536 58.9777 51.1661C59.0714 50.4813 59.1636 49.8168 59.2542 49.1725ZM68.2685 83.1349C70.5847 83.2912 72.4622 82.93 73.901 82.0515C75.3811 81.1757 76.5504 80.0147 77.4088 78.5686C78.2672 77.1224 78.8882 75.5179 79.2718 73.7552C79.6553 71.9924 79.9072 70.3224 80.0272 68.7451C80.1565 67.0464 80.1447 65.5619 79.992 64.2914C79.8837 62.9832 79.5723 61.885 79.0579 60.9966C78.5848 60.111 77.8674 59.4325 76.9055 58.9611C75.9467 58.4493 74.7228 58.1431 73.2338 58.0426C72.7788 58.012 72.1982 57.9931 71.492 57.9861C70.7858 57.9791 69.9332 57.9826 68.9344 57.9965C68.7378 59.4873 68.499 61.2598 68.2179 63.3141C67.94 65.3279 67.6321 67.4616 67.2943 69.7153C67.0009 71.9313 66.6838 74.1864 66.3429 76.4805C66.0051 78.7341 65.6796 80.826 65.3664 82.7562C65.9807 82.8789 66.5344 82.9772 67.0277 83.0512C67.524 83.0847 67.9376 83.1126 68.2685 83.1349Z" fill="black"/>
<path d="M121.483 81.4629L95.8023 96.3028C95.2207 96.6411 94.6249 96.9856 94.015 97.3382L94.0087 97.3418L93.5947 97.5784L95.8023 96.3028C104.059 91.4997 109.443 87.9346 111.673 79.7723C112.863 75.4164 120.67 81.9254 121.483 81.4629Z" fill="white"/>
<path d="M106.809 103.752C99.9569 104.098 93.3283 107.727 81.3037 114.721L99.5494 104.005L106.809 103.752Z" fill="white"/>
<path d="M32.5359 38.1641C30.2156 49.617 31.4005 51.3757 22.9375 52.1927H30.8107L32.5359 38.1641Z" fill="black"/>
<path d="M41.2707 53.3149C38.0113 51.7485 39.1902 51.9756 39.6506 47.3984L36.6953 54.3864C39.093 54.5208 43.4076 54.3419 41.2707 53.3149Z" fill="black"/>
<ellipse cx="85.8604" cy="88.5356" rx="6.22074" ry="6.02194" fill="white"/>
<ellipse cx="68.1651" cy="38.9257" rx="3.88479" ry="3.76064" fill="#35ACBC"/>
<path d="M46.3545 31.7206C46.5753 30.1405 47.1317 27.212 48.9129 26.7471L46.3545 26.8048V31.7206Z" fill="white"/>
<defs>
<clipPath id="clip0_7619_87869">
<rect x="16.0449" y="24.3291" width="96.4698" height="93.3868" rx="46.6934" fill="white"/>
</clipPath>
</defs>
</svg>
