<svg xmlns="http://www.w3.org/2000/svg" width="16" height="16" viewBox="0 0 16 16" fill="none">
  <g clip-path="url(#clip0_7554_201215)">
    <path d="M7.548 9.5507L8.182 7.7457C7.52619 7.54553 6.89671 7.26755 6.307 6.9177C6.74654 6.43011 7.11946 5.88637 7.416 5.3007C7.72721 4.68961 7.95716 4.04044 8.1 3.3697C8.689 3.3697 9.079 3.3897 9.519 3.4297V1.6207C9.03748 1.67274 8.55329 1.69611 8.069 1.6907H5.687V1.0807C5.68665 0.87588 5.70675 0.671534 5.747 0.470703H3.738C3.77922 0.674764 3.79932 0.882525 3.798 1.0907V1.6907H1.589C1.10504 1.69585 0.621206 1.67248 0.14 1.6207V3.4297C0.64 3.3897 0.979 3.3697 1.569 3.3697C1.73855 3.96195 1.96982 4.53476 2.259 5.0787C2.60815 5.74131 3.0414 6.35606 3.548 6.9077C2.45071 7.54758 1.24995 7.99059 0 8.2167C0.420415 8.74591 0.744977 9.34461 0.959 9.9857C2.3811 9.60575 3.72712 8.98366 4.938 8.1467C5.74428 8.72455 6.62146 9.19641 7.548 9.5507ZM3.488 3.3697H6.137C5.92419 4.26574 5.495 5.09596 4.887 5.7877C4.22732 5.11022 3.74655 4.27927 3.488 3.3697Z" fill="white"/>
    <path d="M13.7178 15.9998L12.9928 13.6208H9.3498L8.6248 15.9998H6.3418L9.8688 5.96484H12.4598L16.0008 15.9998H13.7178ZM12.4868 11.8438C11.8201 9.68784 11.4431 8.46884 11.3558 8.18684C11.2718 7.90384 11.2108 7.68084 11.1748 7.51684C11.0241 8.09951 10.5935 9.54184 9.8828 11.8438H12.4868Z" fill="white"/>
  </g>
  <defs>
    <clipPath id="clip0_7554_201215">
      <rect width="16" height="16" fill="white"/>
    </clipPath>
  </defs>
</svg>