<?xml version="1.0" standalone="no"?>
<!DOCTYPE svg PUBLIC "-//W3C//DTD SVG 20010904//EN"
 "http://www.w3.org/TR/2001/REC-SVG-20010904/DTD/svg10.dtd">
<svg version="1.0" xmlns="http://www.w3.org/2000/svg"
 width="576.000000pt" height="576.000000pt" viewBox="0 0 576.000000 576.000000"
 preserveAspectRatio="xMidYMid meet">
<metadata>
Created by potrace 1.14, written by Peter Selinger 2001-2017
</metadata>
<g transform="translate(0.000000,576.000000) scale(0.100000,-0.100000)"
fill="#000000" stroke="none">
<path d="M1613 5504 c-84 -22 -167 -69 -238 -135 -36 -34 -65 -66 -65 -71 0
-5 -8 -22 -19 -36 -32 -47 -62 -144 -64 -209 -1 -39 -6 -58 -12 -53 -117 90
-175 120 -290 151 -92 25 -273 20 -356 -9 -104 -37 -181 -84 -253 -156 -85
-85 -93 -95 -128 -166 -68 -136 -82 -314 -36 -460 21 -69 80 -169 134 -226 30
-32 54 -59 54 -59 0 0 -27 -28 -59 -62 -103 -106 -141 -204 -136 -355 2 -101
30 -188 80 -254 14 -18 25 -36 25 -41 0 -4 -15 -21 -32 -38 -86 -83 -183 -278
-205 -411 -10 -62 -10 -234 0 -298 16 -100 68 -227 131 -320 67 -97 202 -222
280 -257 13 -6 27 -23 31 -38 8 -36 65 -174 76 -186 5 -5 9 -14 9 -20 0 -10
29 -66 112 -215 24 -44 151 -215 208 -281 71 -82 178 -187 184 -181 3 3 6 0 6
-6 0 -32 316 -255 475 -335 181 -91 271 -125 480 -183 34 -10 194 -41 245 -48
104 -15 158 -19 285 -20 149 -2 288 6 395 25 36 6 79 13 95 16 17 2 48 9 70
15 46 13 51 14 85 21 83 17 286 94 405 154 67 34 71 34 130 23 33 -6 89 -13
125 -16 36 -3 88 -7 115 -9 28 -2 75 -6 105 -9 284 -26 976 -27 1130 -2 78 12
102 20 167 51 130 64 213 173 243 322 12 58 9 183 -5 243 -3 14 -7 30 -9 35
-12 52 -43 135 -58 157 -10 14 -18 30 -18 35 0 6 -22 30 -48 55 -50 47 -116
87 -161 95 -14 2 -27 5 -28 7 -1 1 9 31 24 66 34 84 38 108 36 220 -1 69 -8
117 -26 176 -27 87 -70 184 -96 218 -38 48 -97 106 -108 106 -7 0 -13 3 -13 8
0 7 -18 16 -85 41 -38 14 -121 19 -162 10 l-33 -7 -1 117 c-1 140 -4 179 -23
316 -27 189 -112 451 -204 625 -58 110 -77 145 -82 150 -7 7 -29 43 -37 60 -4
8 -9 17 -12 20 -4 3 -28 34 -54 70 -26 36 -63 85 -84 110 -50 62 -249 259
-298 295 -22 16 -42 33 -45 36 -12 13 -171 120 -240 161 -81 47 -230 121 -270
133 -14 4 -29 11 -35 15 -18 14 -259 89 -340 106 -187 40 -332 56 -514 55 -69
0 -151 -2 -181 -5 -30 -3 -74 -8 -97 -10 -23 -2 -47 -7 -53 -11 -12 -8 -13 0
0 45 41 152 23 286 -55 410 -34 54 -130 150 -150 150 -8 0 -15 4 -15 9 0 11
-112 58 -167 70 -62 13 -180 11 -240 -5z"/>
</g>
</svg>
