<svg xmlns="http://www.w3.org/2000/svg" width="48" height="49" viewBox="0 0 48 49" fill="none">
  <path d="M18.294 2.50592C18.1988 2.4764 18.0997 2.46157 18 2.46192V40.5079L30.706 44.4179C30.8013 44.4469 30.9004 44.4618 31 44.4619V6.41592L18.294 2.50592Z" fill="#5A7A84"/>
  <path d="M17.757 2.49191L1.757 6.49191C1.54075 6.54609 1.34881 6.67096 1.21166 6.84671C1.0745 7.02245 1.00001 7.23899 1 7.46191V43.4619C1 43.6139 1.03466 43.7639 1.10134 43.9005C1.16801 44.0371 1.26495 44.1567 1.38479 44.2502C1.50462 44.3438 1.6442 44.4087 1.79291 44.4402C1.94162 44.4717 2.09555 44.4689 2.243 44.4319L17.972 40.4999L18 40.5079V2.46191C17.9181 2.46192 17.8365 2.472 17.757 2.49191Z" fill="#8EAEB8"/>
  <path d="M46.609 2.66876C46.4874 2.5754 46.346 2.51124 46.1957 2.48125C46.0453 2.45125 45.8901 2.45622 45.742 2.49576L31.02 6.42176L31 6.41576V44.4618C31.087 44.4626 31.1738 44.4519 31.258 44.4298L46.258 40.4298C46.4711 40.3728 46.6595 40.2471 46.7937 40.072C46.9279 39.8969 47.0004 39.6824 47 39.4618V3.46176C47 3.30845 46.9647 3.15721 46.8969 3.0197C46.8291 2.8822 46.7306 2.76213 46.609 2.66876Z" fill="#7A98A2"/>
  <path d="M32 24.4619C27.576 24.4619 23 27.6909 23 33.0959C23 38.1109 30.459 45.3739 31.31 46.1859C31.496 46.3632 31.7431 46.4621 32 46.4621C32.2569 46.4621 32.504 46.3632 32.69 46.1859C33.541 45.3739 41 38.1109 41 33.0959C41 27.6909 36.424 24.4619 32 24.4619Z" fill="#FF6F1E"/>
  <path d="M32 36.4619C31.4067 36.4619 30.8266 36.286 30.3333 35.9563C29.8399 35.6267 29.4554 35.1581 29.2284 34.61C29.0013 34.0618 28.9419 33.4586 29.0576 32.8766C29.1734 32.2947 29.4591 31.7602 29.8787 31.3406C30.2982 30.921 30.8328 30.6353 31.4147 30.5196C31.9967 30.4038 32.5999 30.4632 33.148 30.6903C33.6962 30.9173 34.1648 31.3019 34.4944 31.7952C34.8241 32.2886 35 32.8686 35 33.4619C35 34.2576 34.6839 35.0206 34.1213 35.5832C33.5587 36.1458 32.7957 36.4619 32 36.4619Z" fill="white"/>
</svg>