<svg xmlns="http://www.w3.org/2000/svg" width="48" height="49" viewBox="0 0 48 49" fill="none">
<path d="M42 41.4619H12C10.895 41.4619 10 40.5669 10 39.4619V3.46191C10 2.35691 10.895 1.46191 12 1.46191H42C43.105 1.46191 44 2.35691 44 3.46191V39.4619C44 40.5669 43.105 41.4619 42 41.4619Z" fill="#5A7A84"/>
<path d="M36 47.4619H6C4.895 47.4619 4 46.5669 4 45.4619V9.46191C4 8.35691 4.895 7.46191 6 7.46191H36C37.105 7.46191 38 8.35691 38 9.46191V45.4619C38 46.5669 37.105 47.4619 36 47.4619Z" fill="#8EAEB8"/>
<path d="M29 19.4619H13C12.448 19.4619 12 19.0139 12 18.4619C12 17.9099 12.448 17.4619 13 17.4619H29C29.552 17.4619 30 17.9099 30 18.4619C30 19.0139 29.552 19.4619 29 19.4619Z" fill="#F2FAFA"/>
<path d="M29 27.4619H13C12.448 27.4619 12 27.0139 12 26.4619C12 25.9099 12.448 25.4619 13 25.4619H29C29.552 25.4619 30 25.9099 30 26.4619C30 27.0139 29.552 27.4619 29 27.4619Z" fill="#F2FAFA"/>
<path d="M21 35.4619H13C12.448 35.4619 12 35.0139 12 34.4619C12 33.9099 12.448 33.4619 13 33.4619H21C21.552 33.4619 22 33.9099 22 34.4619C22 35.0139 21.552 35.4619 21 35.4619Z" fill="#F2FAFA"/>
</svg>