<svg xmlns="http://www.w3.org/2000/svg" width="48" height="49" viewBox="0 0 48 49" fill="none">
<path fill-rule="evenodd" clip-rule="evenodd" d="M40.236 38.0799L29 32.4619V22.4619H17V32.4619L5.764 38.0799C4.93348 38.4952 4.23499 39.1335 3.74681 39.9233C3.25863 40.7132 3.00003 41.6234 3 42.5519V45.4619C3 45.7271 3.10536 45.9815 3.29289 46.169C3.48043 46.3566 3.73478 46.4619 4 46.4619H42C42.2652 46.4619 42.5196 46.3566 42.7071 46.169C42.8946 45.9815 43 45.7271 43 45.4619V42.5519C43 41.6234 42.7414 40.7132 42.2532 39.9233C41.765 39.1335 41.0665 38.4952 40.236 38.0799Z" fill="#335262"/>
<path d="M23 28.4619C20.0837 28.4585 17.2878 27.2984 15.2256 25.2363C13.1635 23.1741 12.0034 20.3782 12 17.4619V13.4619C12 10.5445 13.1589 7.74664 15.2218 5.68374C17.2847 3.62084 20.0826 2.46191 23 2.46191C25.9174 2.46191 28.7153 3.62084 30.7782 5.68374C32.8411 7.74664 34 10.5445 34 13.4619V17.4619C33.9966 20.3782 32.8365 23.1741 30.7744 25.2363C28.7122 27.2984 25.9163 28.4585 23 28.4619Z" fill="#5A7A84"/>
<path d="M39 47.4619C43.4183 47.4619 47 43.8802 47 39.4619C47 35.0436 43.4183 31.4619 39 31.4619C34.5817 31.4619 31 35.0436 31 39.4619C31 43.8802 34.5817 47.4619 39 47.4619Z" fill="#FF6F1E"/>
<path fill-rule="evenodd" clip-rule="evenodd" d="M34 39.4619C34 38.9096 34.4477 38.4619 35 38.4619H43C43.5523 38.4619 44 38.9096 44 39.4619C44 40.0142 43.5523 40.4619 43 40.4619H35C34.4477 40.4619 34 40.0142 34 39.4619Z" fill="white"/>
<path fill-rule="evenodd" clip-rule="evenodd" d="M39 34.4619C39.5523 34.4619 40 34.9096 40 35.4619L40 43.4619C40 44.0142 39.5523 44.4619 39 44.4619C38.4477 44.4619 38 44.0142 38 43.4619L38 35.4619C38 34.9096 38.4477 34.4619 39 34.4619Z" fill="white"/>
</svg>